<svg width="320" height="132" viewBox="0 0 320 132" fill="none" xmlns="http://www.w3.org/2000/svg">
<path d="M132.326 52.5962C132.326 53.9531 133.432 55.0533 134.797 55.0533H138.974C140.339 55.0533 141.445 56.1535 141.445 57.5104V58.7746C141.445 60.1316 140.339 61.2317 138.974 61.2317H126.636C125.271 61.2317 124.165 60.1316 124.165 58.7746V34.65C124.165 33.293 125.271 32.1928 126.636 32.1928H129.856C131.22 32.1928 132.326 33.293 132.326 34.65V52.5962ZM150.142 32.1928C151.507 32.1928 152.613 33.293 152.613 34.65V49.0395C152.613 50.6047 152.974 51.813 153.696 52.6644C154.445 53.5155 155.569 53.9412 157.068 53.9412C158.567 53.9412 159.691 53.5155 160.441 52.6644C161.218 51.7857 161.607 50.5774 161.607 49.0395V34.65C161.607 33.293 162.713 32.1928 164.078 32.1928H167.297C168.662 32.1928 169.768 33.293 169.768 34.65V49.0395C169.768 51.703 169.199 53.9823 168.061 55.8771C166.923 57.7445 165.368 59.1586 163.397 60.1196C161.454 61.0533 159.289 61.5201 156.902 61.5201C154.514 61.5201 152.377 61.0533 150.489 60.1196C148.629 59.1586 147.158 57.7445 146.076 55.8771C145.021 54.01 144.493 51.7307 144.493 49.0395V34.65C144.493 33.293 145.6 32.1928 146.964 32.1928H150.142ZM173.262 46.6506C173.262 43.7947 173.859 41.2546 175.052 39.0304C176.274 36.7787 177.995 35.035 180.216 33.7993C182.436 32.5361 184.99 31.9045 187.877 31.9045C191.541 31.9045 194.622 32.8794 197.121 34.829C198.843 36.1537 200.142 37.811 201.02 39.8008C201.653 41.2349 200.464 42.6963 198.889 42.6963H194.723C193.771 42.6963 192.941 42.12 192.339 41.387C191.943 40.9054 191.483 40.5042 190.958 40.1837C190.042 39.607 188.974 39.3187 187.752 39.3187C185.864 39.3187 184.352 39.9915 183.214 41.337C182.103 42.6551 181.548 44.4263 181.548 46.6506C181.548 48.9022 182.103 50.7008 183.214 52.0464C184.352 53.3644 185.864 54.0235 187.752 54.0235C188.974 54.0235 190.042 53.7351 190.958 53.1586C191.483 52.8379 191.943 52.4368 192.339 51.9552C192.941 51.2224 193.771 50.6459 194.723 50.6459H198.889C200.464 50.6459 201.653 52.1072 201.022 53.5419C200.144 55.5392 198.844 57.2101 197.121 58.5544C194.622 60.4765 191.541 61.4378 187.877 61.4378C184.99 61.4378 182.436 60.8199 180.216 59.5842C177.995 58.321 176.274 56.5774 175.052 54.353C173.859 52.1014 173.262 49.5337 173.262 46.6506ZM211.506 32.1928C212.87 32.1928 213.977 33.293 213.977 34.65V58.7746C213.977 60.1316 212.87 61.2317 211.506 61.2317H208.286C206.922 61.2317 205.815 60.1316 205.815 58.7746V34.65C205.815 33.293 206.922 32.1928 208.286 32.1928H211.506ZM237.756 58.1775C237.421 57.1729 236.476 56.495 235.412 56.495H228.568C227.503 56.495 226.558 57.1729 226.223 58.1775L225.765 59.5492C225.429 60.5539 224.484 61.2317 223.42 61.2317H220.162C218.445 61.2317 217.251 59.5326 217.842 57.9291L226.732 33.8045C227.089 32.8365 228.015 32.1928 229.052 32.1928H235.008C236.046 32.1928 236.973 32.8378 237.329 33.8074L246.184 57.9321C246.773 59.5351 245.579 61.2317 243.864 61.2317H240.559C239.495 61.2317 238.55 60.5539 238.215 59.5492L237.756 58.1775ZM233.437 50.3163C234.281 50.3163 234.877 49.4935 234.609 48.6974L233.169 44.4241C232.791 43.3043 231.198 43.3075 230.824 44.4287L229.404 48.702C229.139 49.4972 229.734 50.3163 230.576 50.3163H233.437ZM277.246 58.7746C277.246 60.1316 276.14 61.2317 274.775 61.2317H270.408C269.581 61.2317 268.81 60.8208 268.351 60.1368L260.481 48.3832C259.803 47.3711 258.217 47.8481 258.217 49.0641V58.7746C258.217 60.1316 257.111 61.2317 255.746 61.2317H252.527C251.162 61.2317 250.056 60.1316 250.056 58.7746V34.65C250.056 33.293 251.162 32.1928 252.527 32.1928H256.885C257.717 32.1928 258.492 32.6089 258.949 33.2999L266.817 45.1987C267.491 46.2175 269.085 45.743 269.085 44.5236V34.65C269.085 33.293 270.191 32.1928 271.556 32.1928H274.775C276.14 32.1928 277.246 33.293 277.246 34.65V58.7746ZM295.969 61.5201C293.22 61.5201 290.694 60.8887 288.391 59.6254C286.086 58.3348 284.254 56.5635 282.894 54.3119C281.562 52.0326 280.895 49.4652 280.895 46.6094C280.895 43.7535 281.562 41.1997 282.894 38.948C284.254 36.6689 286.086 34.8977 288.391 33.6345C290.694 32.3713 293.22 31.7397 295.969 31.7397C298.744 31.7397 301.27 32.3713 303.547 33.6345C305.851 34.8977 307.669 36.6689 309.001 38.948C310.334 41.1997 311 43.7535 311 46.6094C311 49.4652 310.334 52.0326 309.001 54.3119C307.669 56.5635 305.851 58.3348 303.547 59.6254C301.243 60.8887 298.717 61.5201 295.969 61.5201ZM295.969 54.0235C298.05 54.0235 299.688 53.3508 300.882 52.0053C302.103 50.6597 302.714 48.8611 302.714 46.6094C302.714 44.3028 302.103 42.4903 300.882 41.1723C299.688 39.8267 298.05 39.1539 295.969 39.1539C293.859 39.1539 292.207 39.8267 291.014 41.1723C289.82 42.4903 289.223 44.3028 289.223 46.6094C289.223 48.8884 289.82 50.7008 291.014 52.0464C292.207 53.3644 293.859 54.0235 295.969 54.0235Z" fill="#FF911C"/>
<path d="M168.834 69.6664C170.439 69.6664 171.619 71.165 171.233 72.7145L164.386 100.207C164.113 101.303 163.123 102.073 161.987 102.073H154.651C153.497 102.073 152.497 101.278 152.242 100.159L149.345 87.448C149.055 86.1749 147.232 86.1709 146.937 87.4428L143.977 100.169C143.717 101.284 142.719 102.073 141.569 102.073H134.229C133.091 102.073 132.1 101.3 131.83 100.2L125.062 72.708C124.681 71.1601 125.859 69.6664 127.462 69.6664H132.121C133.324 69.6664 134.352 70.5286 134.556 71.7077L136.993 85.8254C137.222 87.1464 139.109 87.2011 139.414 85.8954L142.763 71.5673C143.023 70.4543 144.021 69.6664 145.169 69.6664H151.267C152.42 69.6664 153.419 70.4595 153.676 71.5772L156.906 85.6632C157.206 86.9719 159.097 86.9222 159.327 85.5996L161.746 71.7043C161.952 70.5267 162.979 69.6664 164.181 69.6664H168.834ZM186.251 76.8833C185.569 76.8833 185.016 77.4334 185.016 78.1119V80.9409C185.016 81.6194 185.569 82.1695 186.251 82.1695H193.042C194.406 82.1695 195.512 83.2694 195.512 84.6266V86.5613C195.512 87.9182 194.406 89.0184 193.042 89.0184H186.251C185.569 89.0184 185.016 89.5685 185.016 90.247V93.6276C185.016 94.3061 185.569 94.8562 186.251 94.8562H194.441C195.806 94.8562 196.912 95.9561 196.912 97.3133V99.6156C196.912 100.973 195.806 102.073 194.441 102.073H178.342C176.978 102.073 175.872 100.973 175.872 99.6156V72.1236C175.872 70.7666 176.978 69.6664 178.342 69.6664H194.441C195.806 69.6664 196.912 70.7666 196.912 72.1236V74.4262C196.912 75.7831 195.806 76.8833 194.441 76.8833H186.251ZM213.84 102.395C210.014 102.395 206.873 101.506 204.416 99.7287C202.629 98.4135 201.442 96.6932 200.857 94.5675C200.481 93.2072 201.644 92.0063 203.062 92.0063H207.924C209.211 92.0063 210.123 93.1092 210.897 94.131C210.997 94.2631 211.107 94.382 211.227 94.4886C211.818 95.0095 212.58 95.2699 213.513 95.2699C214.353 95.2699 215.037 95.0706 215.566 94.6722C216.126 94.2432 216.405 93.6611 216.405 92.9255C216.405 91.9755 215.955 91.2399 215.053 90.719C214.151 90.1981 212.689 89.6161 210.667 88.9723C208.521 88.2678 206.78 87.5936 205.442 86.9498C204.136 86.2756 202.986 85.3103 201.99 84.0541C201.026 82.7669 200.544 81.097 200.544 79.0437C200.544 76.9598 201.073 75.1824 202.13 73.7115C203.188 72.2099 204.649 71.0762 206.515 70.3099C208.381 69.5439 210.497 69.1609 212.86 69.1609C216.686 69.1609 219.734 70.0494 222.004 71.8269C223.651 73.0769 224.749 74.6955 225.296 76.6834C225.67 78.0369 224.508 79.2274 223.096 79.2274H218.147C216.813 79.2274 215.879 77.9663 214.887 77.079C214.864 77.0593 214.842 77.0399 214.819 77.0212C214.26 76.5307 213.529 76.2856 212.627 76.2856C211.943 76.2856 211.383 76.4849 210.947 76.8833C210.512 77.2817 210.294 77.8486 210.294 78.5839C210.294 79.197 210.528 79.7333 210.994 80.1927C211.492 80.6218 212.098 81.0048 212.813 81.3421C213.529 81.6486 214.586 82.0466 215.986 82.5371C218.07 83.242 219.78 83.9469 221.118 84.6515C222.486 85.3257 223.653 86.291 224.616 87.5475C225.612 88.7733 226.109 90.336 226.109 92.236C226.109 94.1667 225.612 95.898 224.616 97.4303C223.653 98.9624 222.237 100.173 220.371 101.062C218.536 101.95 216.359 102.395 213.84 102.395ZM239.504 92.7207C239.504 94.0779 240.61 95.1778 241.975 95.1778H247.25C248.615 95.1778 249.721 96.278 249.721 97.6349V99.6156C249.721 100.973 248.615 102.073 247.25 102.073H232.831C231.466 102.073 230.36 100.973 230.36 99.6156V72.1236C230.36 70.7666 231.466 69.6664 232.831 69.6664H237.034C238.398 69.6664 239.504 70.7666 239.504 72.1236V92.7207ZM264.891 76.8833C263.526 76.8833 262.42 77.9832 262.42 79.3404V79.7124C262.42 81.0693 263.526 82.1695 264.891 82.1695H270.446C271.811 82.1695 272.917 83.2694 272.917 84.6266V86.5613C272.917 87.9182 271.811 89.0184 270.446 89.0184H264.891C263.526 89.0184 262.42 90.1186 262.42 91.4755V92.3991C262.42 93.756 263.526 94.8562 264.891 94.8562H271.846C273.21 94.8562 274.316 95.9561 274.316 97.3133V99.6156C274.316 100.973 273.21 102.073 271.846 102.073H255.747C254.382 102.073 253.276 100.973 253.276 99.6156V72.1236C253.276 70.7666 254.382 69.6664 255.747 69.6664H271.846C273.21 69.6664 274.316 70.7666 274.316 72.1236V74.4262C274.316 75.7831 273.21 76.8833 271.846 76.8833H264.891ZM309.299 99.6156C309.299 100.973 308.192 102.073 306.828 102.073H301.475C300.65 102.073 299.88 101.663 299.421 100.981L290.241 87.327C289.562 86.3171 287.979 86.795 287.979 88.0098V99.6156C287.979 100.973 286.872 102.073 285.508 102.073H281.305C279.941 102.073 278.835 100.973 278.835 99.6156V72.1236C278.835 70.7666 279.941 69.6664 281.305 69.6664H286.649C287.479 69.6664 288.254 70.0811 288.711 70.7697L297.889 84.5937C298.564 85.6104 300.155 85.1349 300.155 83.9168V72.1236C300.155 70.7666 301.261 69.6664 302.625 69.6664H306.828C308.192 69.6664 309.299 70.7666 309.299 72.1236V99.6156Z" fill="#007BFE"/>
<path d="M9 111.726V20.9524C9 19.2165 11.0988 18.3471 12.3263 19.5746L27.9146 35.1629C28.28 35.5283 28.4853 36.0239 28.4853 36.5407V79.7427C28.4853 81.4787 30.5842 82.348 31.8117 81.1205L43.0993 69.8329L57.7133 84.4469L29.056 113.104C28.6906 113.47 28.195 113.675 27.6782 113.675H10.9485C9.87239 113.675 9 112.802 9 111.726Z" fill="#007BFE"/>
<path d="M86.3708 113.104L41.5546 68.2879C40.3271 67.0604 41.1964 64.9616 42.9324 64.9616H65.842C66.8756 64.9616 67.8668 65.3721 68.5977 66.103L83.6152 81.1205C84.8427 82.348 86.9415 81.4787 86.9415 79.7427V36.5407C86.9415 36.0239 87.1468 35.5283 87.5123 35.1629L103.101 19.5746C104.328 18.3471 106.427 19.2165 106.427 20.9524V111.726C106.427 112.803 105.554 113.675 104.478 113.675H87.7486C87.2319 113.675 86.7363 113.47 86.3708 113.104Z" fill="#FF911C"/>
</svg>
