<svg width="48" height="48" viewBox="0 0 48 48" fill="none" xmlns="http://www.w3.org/2000/svg">
<path d="M41 16.5833C41 27.1389 38.559 32.4167 33.6769 32.4167C31.3056 32.4167 28.8646 31.0093 26.3538 28.1944C23.599 30.3759 21.2974 31.8889 19.4492 32.7333C17.6011 33.5778 15.8749 34 14.2708 34C12.6666 34 11.3938 33.6833 10.4523 33.05C9.54567 32.3815 8.84818 31.4667 8.36 30.3056C7.45336 28.1241 7 25.7315 7 23.1278C7 20.5241 7.34874 18.3426 8.04615 16.5833C8.29028 16.0203 8.51692 15.6158 8.72615 15.3694C8.93538 15.1231 9.23182 15 9.61538 15C10.6615 15 11.1846 15.5278 11.1846 16.5833C11.1846 17.0056 11.1323 17.3398 11.0277 17.5861C10.4349 19.0991 10.1385 20.7 10.1385 22.3889C10.1385 28.0185 11.3589 30.8333 13.8 30.8333C15.2995 30.8333 16.4328 30.6574 17.2 30.3056C18.002 29.9185 18.56 29.6722 18.8738 29.5667C19.1877 29.4259 19.5713 29.2148 20.0246 28.9333C20.478 28.6519 20.8092 28.4408 21.0185 28.3C21.2277 28.1592 21.5589 27.9306 22.0123 27.6139C22.4657 27.262 22.7446 27.0333 22.8492 26.9278C22.9887 26.8222 23.2677 26.5935 23.6862 26.2417C24.1394 25.8898 24.401 25.6787 24.4708 25.6083C23.6338 24.0953 23.2154 22.6352 23.2154 21.2278C23.2154 19.8203 23.4594 18.6065 23.9477 17.5861C24.4708 16.5658 24.9938 16.0556 25.5169 16.0556C26.5979 16.0556 27.1385 16.5833 27.1385 17.6389C27.1385 17.8852 26.999 18.325 26.72 18.9583C26.476 19.5565 26.3538 20.3481 26.3538 21.3333C26.3538 22.7759 27.2256 24.4648 28.9692 26.4C30.7129 28.3 32.2821 29.25 33.6769 29.25C36.4667 29.25 37.8615 25.0278 37.8615 16.5833C37.8615 15.5278 38.3846 15 39.4308 15C40.4769 15 41 15.5278 41 16.5833Z" fill="#FA8334"/>
</svg>
