<svg width="508" height="508" viewBox="0 0 508 508" fill="none" xmlns="http://www.w3.org/2000/svg">
<path d="M0 508V0H508V508H0Z" fill="black"/>
<path d="M381 381H127V127H190.5V317.5H221.635V127H285.75V317.5H317.5V127H381V381Z" fill="url(#paint0_linear)"/>
<path d="M31.75 285.75H95.25V95.25H190.5V31.75H31.75V285.75Z" fill="url(#paint1_linear)"/>
<path d="M476.25 190.5H412.75V95.25H222.25V31.75H476.25V190.5Z" fill="url(#paint2_linear)"/>
<path d="M476.25 222.25H412.75V412.75H317.5V476.25H476.25V222.25Z" fill="url(#paint3_linear)"/>
<path d="M31.75 317.5H95.25V412.75H285.75V476.25H31.75V317.5Z" fill="url(#paint4_linear)"/>
<defs>
<linearGradient id="paint0_linear" x1="381" y1="254" x2="125.447" y2="254.559" gradientUnits="userSpaceOnUse">
<stop stop-color="#FFC300"/>
<stop offset="1" stop-color="#FFD60A"/>
</linearGradient>
<linearGradient id="paint1_linear" x1="190.5" y1="158.75" x2="30.7787" y2="158.968" gradientUnits="userSpaceOnUse">
<stop stop-color="#FFC300"/>
<stop offset="1" stop-color="#FFD60A"/>
</linearGradient>
<linearGradient id="paint2_linear" x1="476.25" y1="111.125" x2="220.699" y2="112.019" gradientUnits="userSpaceOnUse">
<stop stop-color="#FFC300"/>
<stop offset="1" stop-color="#FFD60A"/>
</linearGradient>
<linearGradient id="paint3_linear" x1="476.25" y1="349.25" x2="316.529" y2="349.468" gradientUnits="userSpaceOnUse">
<stop stop-color="#FFC300"/>
<stop offset="1" stop-color="#FFD60A"/>
</linearGradient>
<linearGradient id="paint4_linear" x1="285.75" y1="396.875" x2="30.1986" y2="397.769" gradientUnits="userSpaceOnUse">
<stop stop-color="#FFC300"/>
<stop offset="1" stop-color="#FFD60A"/>
</linearGradient>
</defs>
</svg>
