<svg xmlns="http://www.w3.org/2000/svg" viewBox="0 0 419.29 469.45"><defs><style>.cls-1{fill:#f27f3d;}</style></defs><g id="Camada_2" data-name="Camada 2"><g id="Camada_1-2" data-name="Camada 1"><path class="cls-1" d="M419.29,241.94V417a52.42,52.42,0,0,1-82.91,42.63l0,0c-.55-.42-1.1-.85-1.67-1.25l-.06,0a78.51,78.51,0,0,0-92.6-.09c-.68.49-1.35,1-2,1.51A52.42,52.42,0,0,1,157.23,417V84.93a78.33,78.33,0,0,1,21.58-54.1L201.3,8.34,209.65,0l30.83,30.83a78.33,78.33,0,0,1,21.58,54.1V338.42a26.21,26.21,0,0,0,52.41,0V104.82l85.4,85.4A78.28,78.28,0,0,1,419.29,241.94Z"/><path class="cls-1" d="M104.82,104.82V417A52.41,52.41,0,1,1,0,417V241.94a78.28,78.28,0,0,1,19.42-51.72l7.47-7.47Z"/></g></g></svg>