<svg width="3466" height="512" viewBox="0 0 3466 512" fill="none" xmlns="http://www.w3.org/2000/svg">
<path d="M714.714 326.714C701.381 326.714 689.397 323.937 678.762 318.381C668.286 312.825 660.032 304.889 654 294.571C647.968 284.254 644.952 272.111 644.952 258.143C644.952 244.333 647.968 232.27 654 221.952C660.19 211.635 668.524 203.698 679 198.143C689.635 192.587 701.619 189.81 714.952 189.81C728.286 189.81 740.19 192.587 750.667 198.143C761.302 203.698 769.635 211.635 775.667 221.952C781.857 232.27 784.952 244.333 784.952 258.143C784.952 271.952 781.857 284.095 775.667 294.571C769.635 304.889 761.302 312.825 750.667 318.381C740.032 323.937 728.048 326.714 714.714 326.714ZM714.714 286.238C721.222 286.238 726.619 283.857 730.905 279.095C735.349 274.175 737.571 267.19 737.571 258.143C737.571 249.095 735.349 242.19 730.905 237.429C726.619 232.667 721.302 230.286 714.952 230.286C708.603 230.286 703.286 232.667 699 237.429C694.714 242.19 692.571 249.095 692.571 258.143C692.571 267.349 694.635 274.333 698.762 279.095C702.889 283.857 708.206 286.238 714.714 286.238ZM827.51 179.095C819.256 179.095 812.589 176.873 807.51 172.429C802.589 167.825 800.129 162.111 800.129 155.286C800.129 148.302 802.589 142.508 807.51 137.905C812.589 133.302 819.256 131 827.51 131C835.605 131 842.113 133.302 847.033 137.905C852.113 142.508 854.652 148.302 854.652 155.286C854.652 162.111 852.113 167.825 847.033 172.429C842.113 176.873 835.605 179.095 827.51 179.095ZM850.605 191.476V325.048H803.938V191.476H850.605ZM1014.32 163.857C1033.21 163.857 1049.8 167.508 1064.09 174.81C1078.53 181.952 1089.64 192.111 1097.42 205.286C1105.2 218.302 1109.09 233.302 1109.09 250.286C1109.09 264.254 1106.63 277.032 1101.7 288.619C1096.94 300.048 1089.8 309.175 1080.28 316C1070.75 322.825 1059.4 326.238 1046.23 326.238C1037.66 326.238 1030.43 324.651 1024.56 321.476C1018.85 318.143 1014.8 313.461 1012.42 307.429C1008.29 313.619 1002.82 318.381 995.991 321.714C989.324 325.048 981.785 326.714 973.371 326.714C961.625 326.714 952.419 323.301 945.752 316.476C939.244 309.651 935.991 300.127 935.991 287.905C935.991 276.476 938.292 265.682 942.895 255.524C947.499 245.365 953.848 237.27 961.943 231.238C970.196 225.048 979.404 221.952 989.562 221.952C996.229 221.952 1001.78 223.302 1006.23 226C1010.67 228.54 1013.85 232.111 1015.75 236.714L1018.13 223.381H1054.8L1045.04 279.571C1044.56 281.952 1044.32 284.175 1044.32 286.238C1044.32 292.746 1047.18 296 1052.9 296C1059.88 296 1065.2 291.635 1068.85 282.905C1072.5 274.175 1074.32 263.777 1074.32 251.714C1074.32 240.127 1071.7 230.048 1066.47 221.476C1061.39 212.905 1054.01 206.317 1044.32 201.714C1034.64 197.111 1023.21 194.81 1010.04 194.81C992.419 194.81 976.387 199.095 961.943 207.667C947.657 216.079 936.387 227.508 928.133 241.952C920.038 256.396 915.991 272.27 915.991 289.571C915.991 308.143 921.387 322.746 932.181 333.381C942.975 344.015 958.054 349.333 977.419 349.333C993.451 349.333 1007.82 346.556 1020.51 341L1028.13 370.524C1012.26 377.508 994.324 381 974.324 381C955.752 381 939.482 377.349 925.514 370.048C911.546 362.905 900.752 352.667 893.133 339.333C885.514 326 881.705 310.524 881.705 292.905C881.705 268.301 887.499 246.238 899.086 226.714C910.673 207.032 926.546 191.635 946.705 180.524C966.863 169.413 989.404 163.857 1014.32 163.857ZM988.61 293.857C994.006 293.857 998.768 291.556 1002.9 286.952C1007.02 282.19 1009.09 276.476 1009.09 269.81C1009.09 265.206 1007.9 261.556 1005.51 258.857C1003.13 256 999.88 254.571 995.752 254.571C990.038 254.571 985.196 257.032 981.229 261.952C977.419 266.714 975.514 272.508 975.514 279.333C975.514 283.777 976.625 287.349 978.848 290.048C981.229 292.587 984.482 293.857 988.61 293.857ZM1186.59 148.857V325.048H1139.92V148.857H1186.59ZM1349.83 191.476V325.048H1302.93V306C1298.96 312.032 1293.48 316.952 1286.5 320.762C1279.51 324.413 1271.5 326.238 1262.45 326.238C1246.9 326.238 1234.59 321.158 1225.55 311C1216.66 300.682 1212.21 286.714 1212.21 269.095V191.476H1258.64V263.143C1258.64 270.762 1260.63 276.794 1264.59 281.238C1268.72 285.524 1274.12 287.667 1280.78 287.667C1287.61 287.667 1293.01 285.524 1296.97 281.238C1300.94 276.794 1302.93 270.762 1302.93 263.143V191.476H1349.83ZM1368.77 258.143C1368.77 244.333 1371.63 232.27 1377.34 221.952C1383.06 211.635 1390.99 203.698 1401.15 198.143C1411.47 192.587 1423.22 189.81 1436.39 189.81C1453.37 189.81 1467.66 194.492 1479.25 203.857C1490.83 213.063 1498.3 226 1501.63 242.667H1452.1C1449.25 233.937 1443.69 229.571 1435.44 229.571C1429.56 229.571 1424.88 232.032 1421.39 236.952C1418.06 241.714 1416.39 248.778 1416.39 258.143C1416.39 267.508 1418.06 274.651 1421.39 279.571C1424.88 284.492 1429.56 286.952 1435.44 286.952C1443.85 286.952 1449.41 282.587 1452.1 273.857H1501.63C1498.3 290.365 1490.83 303.301 1479.25 312.667C1467.66 322.032 1453.37 326.714 1436.39 326.714C1423.22 326.714 1411.47 323.937 1401.15 318.381C1390.99 312.825 1383.06 304.889 1377.34 294.571C1371.63 284.254 1368.77 272.111 1368.77 258.143ZM1544.59 179.095C1536.33 179.095 1529.67 176.873 1524.59 172.429C1519.67 167.825 1517.2 162.111 1517.2 155.286C1517.2 148.302 1519.67 142.508 1524.59 137.905C1529.67 133.302 1536.33 131 1544.59 131C1552.68 131 1559.19 133.302 1564.11 137.905C1569.19 142.508 1571.73 148.302 1571.73 155.286C1571.73 162.111 1569.19 167.825 1564.11 172.429C1559.19 176.873 1552.68 179.095 1544.59 179.095ZM1567.68 191.476V325.048H1521.01V191.476H1567.68ZM1586.64 258.143C1586.64 244.333 1589.1 232.27 1594.02 221.952C1599.1 211.635 1605.92 203.698 1614.5 198.143C1623.23 192.587 1632.91 189.81 1643.54 189.81C1652.75 189.81 1660.69 191.635 1667.35 195.286C1674.02 198.937 1679.18 203.857 1682.83 210.048V191.476H1729.5V325.048H1682.83V306.476C1679.18 312.667 1673.94 317.587 1667.11 321.238C1660.45 324.889 1652.59 326.714 1643.54 326.714C1632.91 326.714 1623.23 323.937 1614.5 318.381C1605.92 312.825 1599.1 304.889 1594.02 294.571C1589.1 284.095 1586.64 271.952 1586.64 258.143ZM1682.83 258.143C1682.83 249.571 1680.45 242.825 1675.69 237.905C1671.08 232.984 1665.37 230.524 1658.54 230.524C1651.56 230.524 1645.76 232.984 1641.16 237.905C1636.56 242.667 1634.26 249.413 1634.26 258.143C1634.26 266.714 1636.56 273.539 1641.16 278.619C1645.76 283.539 1651.56 286 1658.54 286C1665.37 286 1671.08 283.539 1675.69 278.619C1680.45 273.699 1682.83 266.873 1682.83 258.143ZM1843.46 190.286C1858.87 190.286 1871.08 195.444 1880.13 205.762C1889.18 215.921 1893.7 229.73 1893.7 247.19V325.048H1847.04V253.381C1847.04 245.762 1845.06 239.81 1841.08 235.524C1837.12 231.079 1831.8 228.857 1825.13 228.857C1818.15 228.857 1812.67 231.079 1808.71 235.524C1804.74 239.81 1802.75 245.762 1802.75 253.381V325.048H1756.09V191.476H1802.75V210.524C1806.88 204.492 1812.44 199.651 1819.42 196C1826.4 192.19 1834.42 190.286 1843.46 190.286ZM1981.45 326.714C1968.12 326.714 1956.14 323.937 1945.5 318.381C1935.02 312.825 1926.77 304.889 1920.74 294.571C1914.71 284.254 1911.69 272.111 1911.69 258.143C1911.69 244.333 1914.71 232.27 1920.74 221.952C1926.93 211.635 1935.26 203.698 1945.74 198.143C1956.38 192.587 1968.36 189.81 1981.69 189.81C1995.02 189.81 2006.93 192.587 2017.4 198.143C2028.05 203.698 2036.38 211.635 2042.4 221.952C2048.6 232.27 2051.69 244.333 2051.69 258.143C2051.69 271.952 2048.6 284.095 2042.4 294.571C2036.38 304.889 2028.05 312.825 2017.4 318.381C2006.77 323.937 1994.79 326.714 1981.45 326.714ZM1981.45 286.238C1987.96 286.238 1993.36 283.857 1997.64 279.095C2002.1 274.175 2004.31 267.19 2004.31 258.143C2004.31 249.095 2002.1 242.19 1997.64 237.429C1993.36 232.667 1988.05 230.286 1981.69 230.286C1975.35 230.286 1970.02 232.667 1965.74 237.429C1961.45 242.19 1959.31 249.095 1959.31 258.143C1959.31 267.349 1961.38 274.333 1965.5 279.095C1969.63 283.857 1974.95 286.238 1981.45 286.238ZM2268.06 191.476L2234.01 325.048H2181.63L2163.06 244.095L2143.77 325.048H2091.63L2057.82 191.476H2104.25L2119.25 280.048L2139.01 191.476H2189.01L2209.49 280.286L2224.25 191.476H2268.06ZM2408.95 256.714C2408.95 260.365 2408.71 264.015 2408.24 267.667H2319.9C2320.38 274.968 2322.37 280.444 2325.86 284.095C2329.51 287.587 2334.12 289.333 2339.67 289.333C2347.45 289.333 2353 285.842 2356.33 278.857H2406.1C2404.04 288.063 2399.99 296.318 2393.95 303.619C2388.08 310.762 2380.62 316.396 2371.57 320.524C2362.52 324.651 2352.52 326.714 2341.57 326.714C2328.4 326.714 2316.65 323.937 2306.33 318.381C2296.18 312.825 2288.17 304.889 2282.29 294.571C2276.57 284.254 2273.71 272.111 2273.71 258.143C2273.71 244.175 2276.57 232.111 2282.29 221.952C2288 211.635 2295.94 203.698 2306.1 198.143C2316.42 192.587 2328.24 189.81 2341.57 189.81C2354.75 189.81 2366.42 192.508 2376.57 197.905C2386.74 203.302 2394.67 211.079 2400.38 221.238C2406.1 231.238 2408.95 243.063 2408.95 256.714ZM2361.33 245.048C2361.33 239.333 2359.43 234.889 2355.62 231.714C2351.81 228.381 2347.05 226.714 2341.33 226.714C2335.62 226.714 2330.94 228.302 2327.29 231.476C2323.64 234.492 2321.26 239.016 2320.14 245.048H2361.33ZM2484.96 326.714C2472.89 326.714 2462.11 324.73 2452.58 320.762C2443.21 316.635 2435.75 311.08 2430.2 304.095C2424.8 296.952 2421.79 288.937 2421.15 280.048H2466.39C2467.02 284.333 2469.01 287.667 2472.35 290.048C2475.68 292.429 2479.8 293.619 2484.73 293.619C2488.54 293.619 2491.55 292.825 2493.77 291.238C2495.99 289.651 2497.11 287.587 2497.11 285.048C2497.11 281.714 2495.27 279.254 2491.63 277.667C2487.98 276.08 2481.94 274.333 2473.54 272.429C2464.01 270.524 2456.07 268.381 2449.73 266C2443.37 263.619 2437.82 259.73 2433.06 254.333C2428.45 248.937 2426.15 241.635 2426.15 232.429C2426.15 224.492 2428.3 217.349 2432.58 211C2436.87 204.492 2443.13 199.333 2451.39 195.524C2459.8 191.714 2469.88 189.81 2481.63 189.81C2499.08 189.81 2512.82 194.095 2522.82 202.667C2532.82 211.238 2538.61 222.508 2540.2 236.476H2498.06C2497.26 232.19 2495.36 228.937 2492.35 226.714C2489.49 224.333 2485.6 223.143 2480.68 223.143C2476.87 223.143 2473.93 223.857 2471.87 225.286C2469.96 226.714 2469.01 228.698 2469.01 231.238C2469.01 234.413 2470.83 236.873 2474.49 238.619C2478.13 240.206 2484.01 241.873 2492.11 243.619C2501.79 245.682 2509.8 247.984 2516.15 250.524C2522.65 253.063 2528.3 257.19 2533.06 262.905C2537.98 268.461 2540.44 276.08 2540.44 285.762C2540.44 293.539 2538.13 300.524 2533.54 306.714C2529.08 312.905 2522.65 317.825 2514.25 321.476C2505.99 324.968 2496.23 326.714 2484.96 326.714ZM2610.05 148.857V325.048H2563.38V148.857H2610.05ZM2764.24 256.714C2764.24 260.365 2764 264.015 2763.52 267.667H2675.19C2675.67 274.968 2677.65 280.444 2681.14 284.095C2684.8 287.587 2689.39 289.333 2694.95 289.333C2702.73 289.333 2708.29 285.842 2711.62 278.857H2761.38C2759.32 288.063 2755.27 296.318 2749.24 303.619C2743.37 310.762 2735.9 316.396 2726.86 320.524C2717.81 324.651 2707.81 326.714 2696.86 326.714C2683.68 326.714 2671.94 323.937 2661.62 318.381C2651.46 312.825 2643.44 304.889 2637.57 294.571C2631.86 284.254 2629 272.111 2629 258.143C2629 244.175 2631.86 232.111 2637.57 221.952C2643.29 211.635 2651.23 203.698 2661.38 198.143C2671.7 192.587 2683.52 189.81 2696.86 189.81C2710.04 189.81 2721.7 192.508 2731.86 197.905C2742.01 203.302 2749.95 211.079 2755.67 221.238C2761.38 231.238 2764.24 243.063 2764.24 256.714ZM2716.62 245.048C2716.62 239.333 2714.71 234.889 2710.9 231.714C2707.1 228.381 2702.33 226.714 2696.62 226.714C2690.9 226.714 2686.23 228.302 2682.57 231.476C2678.92 234.492 2676.54 239.016 2675.43 245.048H2716.62ZM2870.71 190.286C2886.12 190.286 2898.33 195.444 2907.38 205.762C2916.43 215.921 2920.95 229.73 2920.95 247.19V325.048H2874.29V253.381C2874.29 245.762 2872.31 239.81 2868.33 235.524C2864.37 231.079 2859.05 228.857 2852.38 228.857C2845.4 228.857 2839.93 231.079 2835.95 235.524C2831.99 239.81 2830 245.762 2830 253.381V325.048H2783.33V191.476H2830V210.524C2834.13 204.492 2839.69 199.651 2846.67 196C2853.65 192.19 2861.67 190.286 2870.71 190.286ZM2969.18 326.952C2960.93 326.952 2954.26 324.73 2949.18 320.286C2944.26 315.682 2941.8 309.889 2941.8 302.905C2941.8 295.92 2944.26 290.127 2949.18 285.524C2954.26 280.92 2960.93 278.619 2969.18 278.619C2977.27 278.619 2983.79 280.92 2988.7 285.524C2993.79 290.127 2996.32 295.92 2996.32 302.905C2996.32 309.73 2993.79 315.444 2988.7 320.048C2983.79 324.651 2977.27 326.952 2969.18 326.952ZM3010.56 258.143C3010.56 244.333 3013.02 232.27 3017.94 221.952C3023.02 211.635 3029.93 203.698 3038.65 198.143C3047.38 192.587 3057.07 189.81 3067.7 189.81C3076.27 189.81 3083.89 191.635 3090.56 195.286C3097.38 198.778 3102.7 203.619 3106.51 209.81V148.857H3153.42V325.048H3106.51V306.476C3102.86 312.667 3097.7 317.587 3091.04 321.238C3084.37 324.889 3076.51 326.714 3067.46 326.714C3056.83 326.714 3047.14 323.937 3038.42 318.381C3029.85 312.825 3023.02 304.889 3017.94 294.571C3013.02 284.095 3010.56 271.952 3010.56 258.143ZM3106.75 258.143C3106.75 249.571 3104.37 242.825 3099.61 237.905C3095 232.984 3089.29 230.524 3082.46 230.524C3075.48 230.524 3069.69 232.984 3065.08 237.905C3060.48 242.667 3058.18 249.413 3058.18 258.143C3058.18 266.714 3060.48 273.539 3065.08 278.619C3069.69 283.539 3075.48 286 3082.46 286C3089.29 286 3095 283.539 3099.61 278.619C3104.37 273.699 3106.75 266.873 3106.75 258.143ZM3307.63 256.714C3307.63 260.365 3307.39 264.015 3306.92 267.667H3218.58C3219.06 274.968 3221.04 280.444 3224.54 284.095C3228.18 287.587 3232.79 289.333 3238.35 289.333C3246.12 289.333 3251.68 285.842 3255.01 278.857H3304.77C3302.7 288.063 3298.66 296.318 3292.63 303.619C3286.75 310.762 3279.3 316.396 3270.25 320.524C3261.2 324.651 3251.2 326.714 3240.25 326.714C3227.07 326.714 3215.32 323.937 3205.01 318.381C3194.85 312.825 3186.83 304.889 3180.96 294.571C3175.25 284.254 3172.39 272.111 3172.39 258.143C3172.39 244.175 3175.25 232.111 3180.96 221.952C3186.68 211.635 3194.61 203.698 3204.77 198.143C3215.08 192.587 3226.92 189.81 3240.25 189.81C3253.42 189.81 3265.08 192.508 3275.25 197.905C3285.4 203.302 3293.35 211.079 3299.06 221.238C3304.77 231.238 3307.63 243.063 3307.63 256.714ZM3260.01 245.048C3260.01 239.333 3258.11 234.889 3254.3 231.714C3250.49 228.381 3245.73 226.714 3240.01 226.714C3234.3 226.714 3229.61 228.302 3225.96 231.476C3222.31 234.492 3219.93 239.016 3218.82 245.048H3260.01ZM3390.77 281L3415.77 191.476H3465.54L3419.58 325.048H3361.49L3315.54 191.476H3365.3L3390.77 281Z" fill="#007BFE"/>
<rect width="512" height="512" rx="32" fill="#FF911C"/>
<path d="M285.552 84C315.541 84 341.875 89.7814 364.556 101.344C387.488 112.656 405.13 128.743 417.478 149.607C429.825 170.219 436 193.973 436 220.869C436 242.989 432.093 263.224 424.282 281.574C416.721 299.672 405.381 314.126 390.261 324.934C375.14 335.743 357.122 341.148 336.205 341.148C322.597 341.148 311.13 338.635 301.806 333.607C292.734 328.328 286.308 320.913 282.528 311.361C275.975 321.164 267.281 328.705 256.445 333.984C245.861 339.262 233.89 341.902 220.534 341.902C201.885 341.902 187.269 336.497 176.685 325.689C166.352 314.88 161.186 299.798 161.186 280.443C161.186 262.344 164.84 245.251 172.149 229.164C179.457 213.077 189.537 200.257 202.39 190.705C215.494 180.902 230.11 176 246.239 176C256.823 176 265.644 178.137 272.699 182.41C279.755 186.432 284.796 192.087 287.82 199.377L291.6 178.262H349.814L334.315 267.246C333.559 271.016 333.181 274.536 333.181 277.803C333.181 288.11 337.717 293.262 346.79 293.262C357.878 293.262 366.319 286.349 372.116 272.525C377.913 258.7 380.81 242.235 380.81 223.131C380.81 204.782 376.652 188.82 368.336 175.246C360.271 161.672 348.553 151.241 333.181 143.951C317.809 136.661 299.665 133.016 278.748 133.016C250.775 133.016 225.322 139.803 202.39 153.377C179.709 166.7 161.816 184.798 148.712 207.672C135.86 230.546 129.434 255.683 129.434 283.082C129.434 312.492 138.002 335.618 155.138 352.459C172.275 369.3 196.215 377.721 226.96 377.721C252.413 377.721 275.219 373.323 295.38 364.525L307.476 411.279C282.276 422.339 253.799 427.869 222.046 427.869C192.561 427.869 166.73 422.087 144.554 410.525C122.377 399.213 105.241 383 93.1445 361.885C81.0482 340.771 75 316.262 75 288.361C75 249.399 84.1983 214.459 102.595 183.541C120.991 152.372 146.192 127.989 178.197 110.393C210.202 92.7978 245.987 84 285.552 84ZM244.727 289.869C253.295 289.869 260.855 286.225 267.407 278.934C273.96 271.393 277.236 262.344 277.236 251.787C277.236 244.497 275.346 238.716 271.565 234.443C267.785 229.918 262.619 227.656 256.067 227.656C246.995 227.656 239.309 231.552 233.008 239.344C226.96 246.885 223.936 256.06 223.936 266.869C223.936 273.906 225.7 279.562 229.228 283.836C233.008 287.857 238.174 289.869 244.727 289.869Z" fill="black"/>
</svg>
