<svg width="4052" height="512" viewBox="0 0 4052 512" fill="none" xmlns="http://www.w3.org/2000/svg">
<path d="M376 91H136C111.188 91 91 111.188 91 136V376C91 400.812 111.188 421 136 421H376C400.812 421 421 400.812 421 376V136C421 111.188 400.812 91 376 91ZM256 361C198.109 361 151 313.891 151 256C151 198.109 198.109 151 256 151C313.891 151 361 198.109 361 256C361 313.891 313.891 361 256 361ZM361 181C344.461 181 331 167.539 331 151C331 134.461 344.461 121 361 121C377.539 121 391 134.461 391 151C391 167.539 377.539 181 361 181Z" fill="#FF911C"/>
<path d="M256 181C214.648 181 181 214.648 181 256C181 297.352 214.648 331 256 331C297.352 331 331 297.352 331 256C331 214.648 297.352 181 256 181Z" fill="#FF911C"/>
<path d="M436 0H76C34.6484 0 0 34.6484 0 76V436C0 477.352 34.6484 512 76 512H436C477.352 512 512 477.352 512 436V76C512 34.6484 477.352 0 436 0ZM451 376C451 417.352 417.352 451 376 451H136C94.6484 451 61 417.352 61 376V136C61 94.6484 94.6484 61 136 61H376C417.352 61 451 94.6484 451 136V376Z" fill="#FF911C"/>
<path d="M667.279 200.231C660.262 200.231 654.594 198.341 650.275 194.563C646.092 190.649 644 185.791 644 179.988C644 174.05 646.092 169.124 650.275 165.211C654.594 161.297 660.262 159.34 667.279 159.34C674.162 159.34 679.695 161.297 683.879 165.211C688.197 169.124 690.356 174.05 690.356 179.988C690.356 185.791 688.197 190.649 683.879 194.563C679.695 198.341 674.162 200.231 667.279 200.231ZM686.915 210.757V324.32H647.239V210.757H686.915ZM783.801 209.745C796.892 209.745 807.282 214.131 814.975 222.903C822.667 231.54 826.513 243.28 826.513 258.126V324.32H786.837V263.389C786.837 256.911 785.151 251.85 781.776 248.206C778.403 244.428 773.882 242.538 768.214 242.538C762.276 242.538 757.62 244.428 754.246 248.206C750.872 251.85 749.185 256.911 749.185 263.389V324.32H709.51V210.757H749.185V226.951C752.694 221.823 757.418 217.707 763.355 214.603C769.294 211.364 776.108 209.745 783.801 209.745ZM896.665 325.737C886.408 325.737 877.232 324.05 869.135 320.676C861.172 317.167 854.829 312.444 850.106 306.506C845.517 300.433 842.953 293.618 842.414 286.061H880.876C881.415 289.704 883.102 292.538 885.936 294.563C888.77 296.587 892.278 297.599 896.463 297.599C899.701 297.599 902.265 296.924 904.155 295.575C906.044 294.226 906.989 292.471 906.989 290.312C906.989 287.478 905.436 285.386 902.333 284.036C899.229 282.687 894.1 281.202 886.948 279.583C878.851 277.964 872.103 276.142 866.705 274.117C861.307 272.093 856.584 268.786 852.535 264.198C848.621 259.61 846.665 253.402 846.665 245.575C846.665 238.827 848.487 232.754 852.131 227.356C855.774 221.823 861.104 217.437 868.122 214.198C875.274 210.96 883.844 209.34 893.831 209.34C908.675 209.34 920.349 212.984 928.851 220.271C937.353 227.559 942.278 237.141 943.629 249.016H907.799C907.123 245.372 905.504 242.606 902.94 240.717C900.511 238.692 897.204 237.68 893.021 237.68C889.782 237.68 887.285 238.287 885.531 239.502C883.912 240.717 883.102 242.404 883.102 244.563C883.102 247.262 884.654 249.353 887.758 250.838C890.861 252.187 895.855 253.604 902.738 255.089C910.97 256.843 917.784 258.801 923.183 260.96C928.716 263.118 933.507 266.628 937.556 271.486C941.739 276.21 943.831 282.687 943.831 290.919C943.831 297.531 941.873 303.47 937.961 308.733C934.181 313.996 928.716 318.179 921.564 321.283C914.546 324.252 906.246 325.737 896.665 325.737ZM1030.34 290.514V324.32H1013.13C984.119 324.32 969.612 309.947 969.612 281.202V243.753H955.645V210.757H969.612V183.227H1009.49V210.757H1030.14V243.753H1009.49V281.81C1009.49 284.914 1010.16 287.141 1011.52 288.49C1013 289.839 1015.43 290.514 1018.8 290.514H1030.34ZM1042.06 267.437C1042.06 255.696 1044.15 245.44 1048.34 236.668C1052.65 227.896 1058.46 221.148 1065.74 216.425C1073.17 211.702 1081.4 209.34 1090.44 209.34C1098.27 209.34 1105.02 210.892 1110.68 213.996C1116.35 217.1 1120.74 221.283 1123.84 226.547V210.757H1163.52V324.32H1123.84V308.53C1120.74 313.794 1116.29 317.977 1110.48 321.081C1104.81 324.185 1098.13 325.737 1090.44 325.737C1081.4 325.737 1073.17 323.376 1065.74 318.652C1058.46 313.928 1052.65 307.181 1048.34 298.409C1044.15 289.502 1042.06 279.178 1042.06 267.437ZM1123.84 267.437C1123.84 260.15 1121.82 254.414 1117.77 250.231C1113.86 246.048 1109 243.955 1103.19 243.955C1097.26 243.955 1092.33 246.048 1088.42 250.231C1084.5 254.279 1082.55 260.015 1082.55 267.437C1082.55 274.725 1084.5 280.527 1088.42 284.846C1092.33 289.029 1097.26 291.121 1103.19 291.121C1109 291.121 1113.86 289.029 1117.77 284.846C1121.82 280.663 1123.84 274.859 1123.84 267.437ZM1228.03 209.34C1235.72 209.34 1242.4 210.892 1248.07 213.996C1253.87 217.1 1258.33 221.283 1261.43 226.547V210.757H1301.11V323.105C1301.11 333.766 1299.08 343.348 1295.03 351.85C1290.99 360.487 1284.64 367.369 1276.01 372.498C1267.5 377.627 1256.71 380.19 1243.62 380.19C1226.07 380.19 1212.04 376.074 1201.51 367.842C1190.99 359.61 1184.98 348.409 1183.5 334.239H1222.56C1223.37 337.883 1225.4 340.717 1228.64 342.741C1231.88 344.765 1236.06 345.777 1241.19 345.777C1254.68 345.777 1261.43 338.22 1261.43 323.105V308.53C1258.33 313.794 1253.87 317.977 1248.07 321.081C1242.4 324.185 1235.72 325.737 1228.03 325.737C1218.99 325.737 1210.76 323.376 1203.33 318.652C1196.05 313.928 1190.24 307.181 1185.93 298.409C1181.74 289.502 1179.65 279.178 1179.65 267.437C1179.65 255.696 1181.74 245.44 1185.93 236.668C1190.24 227.896 1196.05 221.148 1203.33 216.425C1210.76 211.702 1218.99 209.34 1228.03 209.34ZM1261.43 267.437C1261.43 260.15 1259.41 254.414 1255.36 250.231C1251.44 246.048 1246.59 243.955 1240.78 243.955C1234.85 243.955 1229.92 246.048 1226.01 250.231C1222.09 254.279 1220.14 260.015 1220.14 267.437C1220.14 274.725 1222.09 280.527 1226.01 284.846C1229.92 289.029 1234.85 291.121 1240.78 291.121C1246.59 291.121 1251.44 289.029 1255.36 284.846C1259.41 280.663 1261.43 274.859 1261.43 267.437ZM1363.39 230.798C1367.85 224.32 1373.24 219.192 1379.59 215.413C1385.93 211.634 1392.74 209.745 1400.03 209.745V252.053H1388.9C1380.26 252.053 1373.85 253.74 1369.67 257.113C1365.48 260.487 1363.39 266.357 1363.39 274.725V324.32H1323.72V210.757H1363.39V230.798ZM1407.78 267.437C1407.78 255.696 1409.87 245.44 1414.05 236.668C1418.37 227.896 1424.18 221.148 1431.46 216.425C1438.88 211.702 1447.12 209.34 1456.16 209.34C1463.99 209.34 1470.73 210.892 1476.4 213.996C1482.07 217.1 1486.46 221.283 1489.56 226.547V210.757H1529.24V324.32H1489.56V308.53C1486.46 313.794 1482 317.977 1476.2 321.081C1470.53 324.185 1463.85 325.737 1456.16 325.737C1447.12 325.737 1438.88 323.376 1431.46 318.652C1424.18 313.928 1418.37 307.181 1414.05 298.409C1409.87 289.502 1407.78 279.178 1407.78 267.437ZM1489.56 267.437C1489.56 260.15 1487.54 254.414 1483.49 250.231C1479.57 246.048 1474.71 243.955 1468.91 243.955C1462.97 243.955 1458.05 246.048 1454.13 250.231C1450.22 254.279 1448.26 260.015 1448.26 267.437C1448.26 274.725 1450.22 280.527 1454.13 284.846C1458.05 289.029 1462.97 291.121 1468.91 291.121C1474.71 291.121 1479.57 289.029 1483.49 284.846C1487.54 280.663 1489.56 274.859 1489.56 267.437ZM1700.22 209.745C1714.53 209.745 1725.73 214.063 1733.83 222.7C1742.06 231.337 1746.18 243.146 1746.18 258.126V324.32H1706.5V263.389C1706.5 257.316 1704.81 252.592 1701.44 249.219C1698.07 245.845 1693.47 244.158 1687.67 244.158C1681.87 244.158 1677.28 245.845 1673.91 249.219C1670.54 252.592 1668.85 257.316 1668.85 263.389V324.32H1629.17V263.389C1629.17 257.316 1627.48 252.592 1624.11 249.219C1620.87 245.845 1616.35 244.158 1610.55 244.158C1604.61 244.158 1599.95 245.845 1596.58 249.219C1593.21 252.592 1591.52 257.316 1591.52 263.389V324.32H1551.84V210.757H1591.52V225.737C1595.03 220.879 1599.55 217.032 1605.08 214.198C1610.75 211.229 1617.23 209.745 1624.52 209.745C1632.88 209.745 1640.31 211.567 1646.78 215.211C1653.4 218.854 1658.6 223.983 1662.37 230.595C1666.42 224.387 1671.75 219.394 1678.36 215.615C1684.97 211.702 1692.26 209.745 1700.22 209.745ZM1787.15 325.939C1780.12 325.939 1774.46 324.05 1770.14 320.271C1765.95 316.357 1763.87 311.432 1763.87 305.494C1763.87 299.556 1765.95 294.631 1770.14 290.717C1774.46 286.803 1780.12 284.846 1787.15 284.846C1794.03 284.846 1799.56 286.803 1803.75 290.717C1808.06 294.631 1810.22 299.556 1810.22 305.494C1810.22 311.297 1808.06 316.155 1803.75 320.069C1799.56 323.983 1794.03 325.939 1787.15 325.939ZM1822.32 267.437C1822.32 255.696 1824.75 245.44 1829.61 236.668C1834.47 227.896 1841.22 221.148 1849.85 216.425C1858.63 211.702 1868.62 209.34 1879.81 209.34C1894.25 209.34 1906.4 213.321 1916.25 221.283C1926.11 229.111 1932.44 240.109 1935.28 254.279H1893.17C1890.74 246.857 1886.02 243.146 1879 243.146C1874.01 243.146 1870.03 245.238 1867.06 249.421C1864.22 253.47 1862.81 259.475 1862.81 267.437C1862.81 275.4 1864.22 281.473 1867.06 285.656C1870.03 289.839 1874.01 291.931 1879 291.931C1886.16 291.931 1890.88 288.22 1893.17 280.798H1935.28C1932.44 294.833 1926.11 305.831 1916.25 313.794C1906.4 321.756 1894.25 325.737 1879.81 325.737C1868.62 325.737 1858.63 323.376 1849.85 318.652C1841.22 313.928 1834.47 307.181 1829.61 298.409C1824.75 289.637 1822.32 279.313 1822.32 267.437ZM2004.6 325.737C1993.26 325.737 1983.07 323.376 1974.03 318.652C1965.12 313.928 1958.1 307.181 1952.98 298.409C1947.85 289.637 1945.29 279.313 1945.29 267.437C1945.29 255.696 1947.85 245.44 1952.98 236.668C1958.24 227.896 1965.33 221.148 1974.23 216.425C1983.27 211.702 1993.46 209.34 2004.8 209.34C2016.14 209.34 2026.26 211.702 2035.16 216.425C2044.2 221.148 2051.29 227.896 2056.42 236.668C2061.68 245.44 2064.31 255.696 2064.31 267.437C2064.31 279.178 2061.68 289.502 2056.42 298.409C2051.29 307.181 2044.2 313.928 2035.16 318.652C2026.12 323.376 2015.93 325.737 2004.6 325.737ZM2004.6 291.324C2010.12 291.324 2014.72 289.3 2018.36 285.251C2022.14 281.068 2024.03 275.13 2024.03 267.437C2024.03 259.745 2022.14 253.875 2018.36 249.826C2014.72 245.777 2010.19 243.753 2004.8 243.753C1999.39 243.753 1994.88 245.777 1991.24 249.826C1987.59 253.875 1985.77 259.745 1985.77 267.437C1985.77 275.264 1987.52 281.202 1991.03 285.251C1994.54 289.3 1999.06 291.324 2004.6 291.324ZM2228.84 209.745C2243.14 209.745 2254.34 214.063 2262.44 222.7C2270.67 231.337 2274.79 243.146 2274.79 258.126V324.32H2235.11V263.389C2235.11 257.316 2233.42 252.592 2230.05 249.219C2226.67 245.845 2222.09 244.158 2216.29 244.158C2210.48 244.158 2205.89 245.845 2202.52 249.219C2199.14 252.592 2197.46 257.316 2197.46 263.389V324.32H2157.79V263.389C2157.79 257.316 2156.1 252.592 2152.72 249.219C2149.49 245.845 2144.96 244.158 2139.16 244.158C2133.22 244.158 2128.56 245.845 2125.19 249.219C2121.81 252.592 2120.13 257.316 2120.13 263.389V324.32H2080.46V210.757H2120.13V225.737C2123.64 220.879 2128.16 217.032 2133.7 214.198C2139.36 211.229 2145.84 209.745 2153.13 209.745C2161.49 209.745 2168.92 211.567 2175.4 215.211C2182.01 218.854 2187.2 223.983 2190.98 230.595C2195.03 224.387 2200.36 219.394 2206.98 215.615C2213.59 211.702 2220.87 209.745 2228.84 209.745ZM2374.86 131.607L2320.81 363.389H2282.55L2336.6 131.607H2374.86ZM2422.39 174.522V324.32H2382.71V174.522H2422.39ZM2561.18 210.757V324.32H2521.3V308.126C2517.93 313.254 2513.27 317.437 2507.33 320.676C2501.4 323.78 2494.58 325.332 2486.88 325.332C2473.67 325.332 2463.2 321.013 2455.51 312.377C2447.96 303.604 2444.17 291.729 2444.17 276.749V210.757H2483.65V271.688C2483.65 278.166 2485.34 283.295 2488.71 287.073C2492.22 290.717 2496.8 292.538 2502.47 292.538C2508.28 292.538 2512.87 290.717 2516.24 287.073C2519.62 283.295 2521.3 278.166 2521.3 271.688V210.757H2561.18ZM2577.28 267.437C2577.28 255.696 2579.71 245.44 2584.57 236.668C2589.43 227.896 2596.18 221.148 2604.81 216.425C2613.59 211.702 2623.56 209.34 2634.77 209.34C2649.21 209.34 2661.36 213.321 2671.21 221.283C2681.05 229.111 2687.4 240.109 2690.23 254.279H2648.13C2645.7 246.857 2640.97 243.146 2633.96 243.146C2628.97 243.146 2624.98 245.238 2622.02 249.421C2619.18 253.47 2617.77 259.475 2617.77 267.437C2617.77 275.4 2619.18 281.473 2622.02 285.656C2624.98 289.839 2628.97 291.931 2633.96 291.931C2641.12 291.931 2645.83 288.22 2648.13 280.798H2690.23C2687.4 294.833 2681.05 305.831 2671.21 313.794C2661.36 321.756 2649.21 325.737 2634.77 325.737C2623.56 325.737 2613.59 323.376 2604.81 318.652C2596.18 313.928 2589.43 307.181 2584.57 298.409C2579.71 289.637 2577.28 279.313 2577.28 267.437ZM2726.76 200.231C2719.74 200.231 2714.07 198.341 2709.76 194.563C2705.57 190.649 2703.48 185.791 2703.48 179.988C2703.48 174.05 2705.57 169.124 2709.76 165.211C2714.07 161.297 2719.74 159.34 2726.76 159.34C2733.65 159.34 2739.17 161.297 2743.36 165.211C2747.67 169.124 2749.84 174.05 2749.84 179.988C2749.84 185.791 2747.67 190.649 2743.36 194.563C2739.17 198.341 2733.65 200.231 2726.76 200.231ZM2746.4 210.757V324.32H2706.72V210.757H2746.4ZM2762.51 267.437C2762.51 255.696 2764.61 245.44 2768.79 236.668C2773.11 227.896 2778.91 221.148 2786.2 216.425C2793.62 211.702 2801.85 209.34 2810.89 209.34C2818.72 209.34 2825.47 210.892 2831.14 213.996C2836.8 217.1 2841.19 221.283 2844.29 226.547V210.757H2883.97V324.32H2844.29V308.53C2841.19 313.794 2836.73 317.977 2830.93 321.081C2825.27 324.185 2818.58 325.737 2810.89 325.737C2801.85 325.737 2793.62 323.376 2786.2 318.652C2778.91 313.928 2773.11 307.181 2768.79 298.409C2764.61 289.502 2762.51 279.178 2762.51 267.437ZM2844.29 267.437C2844.29 260.15 2842.27 254.414 2838.22 250.231C2834.3 246.048 2829.45 243.955 2823.65 243.955C2817.7 243.955 2812.79 246.048 2808.87 250.231C2804.95 254.279 2803 260.015 2803 267.437C2803 274.725 2804.95 280.527 2808.87 284.846C2812.79 289.029 2817.7 291.121 2823.65 291.121C2829.45 291.121 2834.3 289.029 2838.22 284.846C2842.27 280.663 2844.29 274.859 2844.29 267.437ZM2980.87 209.745C2993.96 209.745 3004.35 214.131 3012.05 222.903C3019.74 231.54 3023.59 243.28 3023.59 258.126V324.32H2983.91V263.389C2983.91 256.911 2982.22 251.85 2978.85 248.206C2975.47 244.428 2970.95 242.538 2965.29 242.538C2959.34 242.538 2954.69 244.428 2951.32 248.206C2947.94 251.85 2946.26 256.911 2946.26 263.389V324.32H2906.58V210.757H2946.26V226.951C2949.76 221.823 2954.49 217.707 2960.43 214.603C2966.36 211.364 2973.18 209.745 2980.87 209.745ZM3098.19 325.737C3086.85 325.737 3076.66 323.376 3067.62 318.652C3058.72 313.928 3051.69 307.181 3046.57 298.409C3041.44 289.637 3038.88 279.313 3038.88 267.437C3038.88 255.696 3041.44 245.44 3046.57 236.668C3051.83 227.896 3058.92 221.148 3067.83 216.425C3076.86 211.702 3087.06 209.34 3098.39 209.34C3109.73 209.34 3119.85 211.702 3128.76 216.425C3137.8 221.148 3144.88 227.896 3150.01 236.668C3155.28 245.44 3157.91 255.696 3157.91 267.437C3157.91 279.178 3155.28 289.502 3150.01 298.409C3144.88 307.181 3137.8 313.928 3128.76 318.652C3119.71 323.376 3109.53 325.737 3098.19 325.737ZM3098.19 291.324C3103.72 291.324 3108.31 289.3 3111.96 285.251C3115.73 281.068 3117.62 275.13 3117.62 267.437C3117.62 259.745 3115.73 253.875 3111.96 249.826C3108.31 245.777 3103.79 243.753 3098.39 243.753C3092.99 243.753 3088.47 245.777 3084.83 249.826C3081.19 253.875 3079.36 259.745 3079.36 267.437C3079.36 275.264 3081.12 281.202 3084.63 285.251C3088.13 289.3 3092.65 291.324 3098.19 291.324ZM3341.85 210.757L3312.91 324.32H3268.37L3252.58 255.494L3236.19 324.32H3191.85L3163.11 210.757H3202.58L3215.34 286.061L3232.14 210.757H3274.65L3292.06 286.263L3304.61 210.757H3341.85ZM3461.65 266.223C3461.65 269.327 3461.45 272.43 3461.04 275.534H3385.94C3386.35 281.742 3388.03 286.398 3391 289.502C3394.1 292.471 3398.02 293.955 3402.74 293.955C3409.35 293.955 3414.08 290.987 3416.91 285.049H3459.22C3457.46 292.876 3454.02 299.894 3448.9 306.101C3443.9 312.174 3437.56 316.965 3429.87 320.474C3422.18 323.983 3413.68 325.737 3404.36 325.737C3393.16 325.737 3383.17 323.376 3374.4 318.652C3365.76 313.928 3358.95 307.181 3353.96 298.409C3349.1 289.637 3346.67 279.313 3346.67 267.437C3346.67 255.562 3349.1 245.305 3353.96 236.668C3358.82 227.896 3365.56 221.148 3374.2 216.425C3382.97 211.702 3393.03 209.34 3404.36 209.34C3415.56 209.34 3425.48 211.634 3434.12 216.223C3442.75 220.811 3449.51 227.424 3454.36 236.061C3459.22 244.563 3461.65 254.616 3461.65 266.223ZM3421.17 256.304C3421.17 251.445 3419.55 247.667 3416.31 244.968C3413.07 242.134 3409.02 240.717 3404.16 240.717C3399.3 240.717 3395.32 242.066 3392.22 244.765C3389.11 247.329 3387.09 251.175 3386.15 256.304H3421.17ZM3526.27 325.737C3516.01 325.737 3506.83 324.05 3498.74 320.676C3490.77 317.167 3484.44 312.444 3479.71 306.506C3475.12 300.433 3472.55 293.618 3472.02 286.061H3510.48C3511.01 289.704 3512.7 292.538 3515.54 294.563C3518.37 296.587 3521.88 297.599 3526.06 297.599C3529.3 297.599 3531.86 296.924 3533.76 295.575C3535.65 294.226 3536.59 292.471 3536.59 290.312C3536.59 287.478 3535.04 285.386 3531.94 284.036C3528.83 282.687 3523.71 281.202 3516.55 279.583C3508.45 277.964 3501.7 276.142 3496.31 274.117C3490.91 272.093 3486.19 268.786 3482.14 264.198C3478.22 259.61 3476.27 253.402 3476.27 245.575C3476.27 238.827 3478.09 232.754 3481.73 227.356C3485.38 221.823 3490.71 217.437 3497.72 214.198C3504.88 210.96 3513.44 209.34 3523.43 209.34C3538.28 209.34 3549.95 212.984 3558.45 220.271C3566.96 227.559 3571.88 237.141 3573.23 249.016H3537.4C3536.72 245.372 3535.1 242.606 3532.54 240.717C3530.11 238.692 3526.8 237.68 3522.62 237.68C3519.38 237.68 3516.88 238.287 3515.13 239.502C3513.51 240.717 3512.7 242.404 3512.7 244.563C3512.7 247.262 3514.25 249.353 3517.36 250.838C3520.47 252.187 3525.46 253.604 3532.34 255.089C3540.57 256.843 3547.39 258.801 3552.79 260.96C3558.32 263.118 3563.11 266.628 3567.16 271.486C3571.34 276.21 3573.43 282.687 3573.43 290.919C3573.43 297.531 3571.48 303.47 3567.56 308.733C3563.79 313.996 3558.32 318.179 3551.17 321.283C3544.15 324.252 3535.85 325.737 3526.27 325.737ZM3632.61 174.522V324.32H3592.94V174.522H3632.61ZM3763.72 266.223C3763.72 269.327 3763.51 272.43 3763.11 275.534H3688.01C3688.41 281.742 3690.09 286.398 3693.07 289.502C3696.17 292.471 3700.08 293.955 3704.81 293.955C3711.42 293.955 3716.15 290.987 3718.98 285.049H3761.29C3759.53 292.876 3756.08 299.894 3750.96 306.101C3745.96 312.174 3739.63 316.965 3731.94 320.474C3724.24 323.983 3715.74 325.737 3706.43 325.737C3695.22 325.737 3685.23 323.376 3676.47 318.652C3667.83 313.928 3661.01 307.181 3656.02 298.409C3651.17 289.637 3648.74 279.313 3648.74 267.437C3648.74 255.562 3651.17 245.305 3656.02 236.668C3660.88 227.896 3667.62 221.148 3676.27 216.425C3685.03 211.702 3695.09 209.34 3706.43 209.34C3717.62 209.34 3727.54 211.634 3736.19 216.223C3744.82 220.811 3751.57 227.424 3756.43 236.061C3761.29 244.563 3763.72 254.616 3763.72 266.223ZM3723.23 256.304C3723.23 251.445 3721.61 247.667 3718.37 244.968C3715.13 242.134 3711.09 240.717 3706.23 240.717C3701.37 240.717 3697.38 242.066 3694.28 244.765C3691.18 247.329 3689.15 251.175 3688.21 256.304H3723.23ZM3854.24 209.745C3867.33 209.745 3877.72 214.131 3885.42 222.903C3893.11 231.54 3896.96 243.28 3896.96 258.126V324.32H3857.28V263.389C3857.28 256.911 3855.59 251.85 3852.22 248.206C3848.84 244.428 3844.32 242.538 3838.66 242.538C3832.71 242.538 3828.06 244.428 3824.69 248.206C3821.31 251.85 3819.63 256.911 3819.63 263.389V324.32H3779.95V210.757H3819.63V226.951C3823.13 221.823 3827.86 217.707 3833.8 214.603C3839.73 211.364 3846.55 209.745 3854.24 209.745ZM3911.03 213.591V176.344H3973.38V324.32H3931.88V213.591H3911.03ZM3989.31 213.591V176.344H4051.66V324.32H4010.16V213.591H3989.31Z" fill="#007BFE"/>
</svg>
