<svg width="4327" height="512" viewBox="0 0 4327 512" fill="none" xmlns="http://www.w3.org/2000/svg">
<path d="M475.074 0H36.9258C16.5312 0 0 16.5312 0 36.9258V475.074C0 495.469 16.5312 512 36.9258 512H475.074C495.469 512 512 495.469 512 475.074V36.9258C512 16.5312 495.469 0 475.074 0ZM181.609 387H119.262V199.426H181.609V387ZM150.438 173.812H150.031C129.109 173.812 115.578 159.41 115.578 141.41C115.578 123.004 129.523 109 150.852 109C172.18 109 185.305 123.004 185.711 141.41C185.711 159.41 172.18 173.812 150.438 173.812ZM406.422 387H344.082V286.652C344.082 261.434 335.055 244.234 312.496 244.234C295.273 244.234 285.016 255.836 280.508 267.035C278.859 271.043 278.457 276.645 278.457 282.25V387H216.113C216.113 387 216.93 217.023 216.113 199.426H278.457V225.984C286.742 213.203 301.566 195.023 334.645 195.023C375.664 195.023 406.422 221.832 406.422 279.445V387Z" fill="#FF911C"/>
<path d="M686.826 177.739V338.609H644.217V177.739H686.826ZM732.612 205.348C725.076 205.348 718.989 203.319 714.351 199.261C709.859 195.058 707.612 189.841 707.612 183.609C707.612 177.232 709.859 171.942 714.351 167.739C718.989 163.536 725.076 161.435 732.612 161.435C740.004 161.435 745.946 163.536 750.438 167.739C755.076 171.942 757.394 177.232 757.394 183.609C757.394 189.841 755.076 195.058 750.438 199.261C745.946 203.319 740.004 205.348 732.612 205.348ZM753.699 216.652V338.609H711.091V216.652H753.699ZM857.747 215.565C871.804 215.565 882.964 220.275 891.225 229.696C899.486 238.971 903.616 251.579 903.616 267.522V338.609H861.008V273.174C861.008 266.217 859.196 260.783 855.573 256.87C851.95 252.812 847.094 250.783 841.007 250.783C834.63 250.783 829.63 252.812 826.008 256.87C822.385 260.783 820.573 266.217 820.573 273.174V338.609H777.964V216.652H820.573V234.044C824.341 228.536 829.413 224.116 835.79 220.783C842.167 217.304 849.486 215.565 857.747 215.565ZM1003.3 338.609L969.604 288.609V338.609H926.996V177.739H969.604V264.478L1003.3 216.652H1054.39L1006.34 277.957L1055.26 338.609H1003.3ZM1184.27 276.217C1184.27 279.551 1184.05 282.884 1183.62 286.217H1102.97C1103.4 292.884 1105.21 297.884 1108.4 301.217C1111.73 304.406 1115.94 306 1121.01 306C1128.11 306 1133.18 302.812 1136.23 296.435H1181.66C1179.78 304.84 1176.08 312.377 1170.57 319.044C1165.21 325.565 1158.4 330.71 1150.14 334.478C1141.88 338.247 1132.75 340.131 1122.75 340.131C1110.72 340.131 1099.99 337.595 1090.57 332.522C1081.3 327.449 1073.98 320.203 1068.62 310.783C1063.4 301.362 1060.79 290.275 1060.79 277.522C1060.79 264.769 1063.4 253.753 1068.62 244.478C1073.83 235.058 1081.08 227.812 1090.36 222.739C1099.78 217.667 1110.57 215.13 1122.75 215.13C1134.78 215.13 1145.43 217.594 1154.7 222.522C1163.98 227.449 1171.23 234.551 1176.44 243.826C1181.66 252.957 1184.27 263.753 1184.27 276.217ZM1140.79 265.565C1140.79 260.348 1139.05 256.29 1135.57 253.391C1132.1 250.348 1127.75 248.826 1122.53 248.826C1117.31 248.826 1113.04 250.275 1109.7 253.174C1106.37 255.927 1104.2 260.058 1103.18 265.565H1140.79ZM1194.75 277.522C1194.75 264.913 1197 253.899 1201.49 244.478C1206.13 235.058 1212.43 227.812 1220.4 222.739C1228.37 217.667 1237.21 215.13 1246.92 215.13C1254.75 215.13 1261.71 216.797 1267.79 220.13C1274.03 223.319 1278.88 227.739 1282.36 233.391V177.739H1325.19V338.609H1282.36V321.652C1279.03 327.304 1274.32 331.797 1268.23 335.131C1262.14 338.464 1254.97 340.131 1246.71 340.131C1237 340.131 1228.16 337.595 1220.19 332.522C1212.36 327.449 1206.13 320.203 1201.49 310.783C1197 301.217 1194.75 290.131 1194.75 277.522ZM1282.58 277.522C1282.58 269.696 1280.4 263.536 1276.06 259.044C1271.85 254.551 1266.63 252.304 1260.4 252.304C1254.03 252.304 1248.74 254.551 1244.53 259.044C1240.33 263.391 1238.23 269.551 1238.23 277.522C1238.23 285.348 1240.33 291.579 1244.53 296.217C1248.74 300.71 1254.03 302.957 1260.4 302.957C1266.63 302.957 1271.85 300.71 1276.06 296.217C1280.4 291.725 1282.58 285.492 1282.58 277.522ZM1370.99 205.348C1363.45 205.348 1357.36 203.319 1352.73 199.261C1348.23 195.058 1345.99 189.841 1345.99 183.609C1345.99 177.232 1348.23 171.942 1352.73 167.739C1357.36 163.536 1363.45 161.435 1370.99 161.435C1378.38 161.435 1384.32 163.536 1388.81 167.739C1393.45 171.942 1395.77 177.232 1395.77 183.609C1395.77 189.841 1393.45 195.058 1388.81 199.261C1384.32 203.319 1378.38 205.348 1370.99 205.348ZM1392.07 216.652V338.609H1349.47V216.652H1392.07ZM1496.12 215.565C1510.18 215.565 1521.34 220.275 1529.6 229.696C1537.86 238.971 1541.99 251.579 1541.99 267.522V338.609H1499.38V273.174C1499.38 266.217 1497.57 260.783 1493.95 256.87C1490.32 252.812 1485.47 250.783 1479.38 250.783C1473.01 250.783 1468.01 252.812 1464.38 256.87C1460.76 260.783 1458.95 266.217 1458.95 273.174V338.609H1416.34V216.652H1458.95V234.044C1462.72 228.536 1467.79 224.116 1474.17 220.783C1480.54 217.304 1487.86 215.565 1496.12 215.565ZM1586.02 340.348C1578.49 340.348 1572.4 338.319 1567.76 334.261C1563.27 330.058 1561.02 324.769 1561.02 318.391C1561.02 312.014 1563.27 306.725 1567.76 302.522C1572.4 298.319 1578.49 296.217 1586.02 296.217C1593.41 296.217 1599.36 298.319 1603.85 302.522C1608.49 306.725 1610.81 312.014 1610.81 318.391C1610.81 324.623 1608.49 329.84 1603.85 334.044C1599.36 338.247 1593.41 340.348 1586.02 340.348ZM1623.8 277.522C1623.8 264.913 1626.41 253.899 1631.63 244.478C1636.84 235.058 1644.09 227.812 1653.37 222.739C1662.79 217.667 1673.51 215.13 1685.54 215.13C1701.05 215.13 1714.09 219.406 1724.67 227.957C1735.25 236.362 1742.07 248.174 1745.11 263.391H1699.89C1697.28 255.421 1692.21 251.435 1684.67 251.435C1679.31 251.435 1675.03 253.682 1671.84 258.174C1668.8 262.522 1667.28 268.971 1667.28 277.522C1667.28 286.073 1668.8 292.595 1671.84 297.087C1675.03 301.579 1679.31 303.826 1684.67 303.826C1692.35 303.826 1697.42 299.84 1699.89 291.87H1745.11C1742.07 306.942 1735.25 318.753 1724.67 327.304C1714.09 335.856 1701.05 340.131 1685.54 340.131C1673.51 340.131 1662.79 337.595 1653.37 332.522C1644.09 327.449 1636.84 320.203 1631.63 310.783C1626.41 301.362 1623.8 290.275 1623.8 277.522ZM1819.54 340.131C1807.37 340.131 1796.42 337.595 1786.72 332.522C1777.15 327.449 1769.62 320.203 1764.11 310.783C1758.6 301.362 1755.85 290.275 1755.85 277.522C1755.85 264.913 1758.6 253.899 1764.11 244.478C1769.76 235.058 1777.37 227.812 1786.93 222.739C1796.64 217.667 1807.59 215.13 1819.76 215.13C1831.93 215.13 1842.8 217.667 1852.37 222.739C1862.08 227.812 1869.68 235.058 1875.2 244.478C1880.85 253.899 1883.67 264.913 1883.67 277.522C1883.67 290.131 1880.85 301.217 1875.2 310.783C1869.68 320.203 1862.08 327.449 1852.37 332.522C1842.66 337.595 1831.72 340.131 1819.54 340.131ZM1819.54 303.174C1825.49 303.174 1830.41 301 1834.33 296.652C1838.38 292.16 1840.41 285.783 1840.41 277.522C1840.41 269.261 1838.38 262.957 1834.33 258.609C1830.41 254.261 1825.55 252.087 1819.76 252.087C1813.97 252.087 1809.11 254.261 1805.2 258.609C1801.28 262.957 1799.33 269.261 1799.33 277.522C1799.33 285.927 1801.21 292.304 1804.98 296.652C1808.75 301 1813.6 303.174 1819.54 303.174ZM2060.36 215.565C2075.72 215.565 2087.75 220.203 2096.45 229.478C2105.28 238.754 2109.71 251.435 2109.71 267.522V338.609H2067.1V273.174C2067.1 266.652 2065.28 261.579 2061.66 257.957C2058.04 254.334 2053.11 252.522 2046.88 252.522C2040.65 252.522 2035.72 254.334 2032.1 257.957C2028.48 261.579 2026.66 266.652 2026.66 273.174V338.609H1984.05V273.174C1984.05 266.652 1982.24 261.579 1978.62 257.957C1975.14 254.334 1970.28 252.522 1964.05 252.522C1957.67 252.522 1952.67 254.334 1949.05 257.957C1945.43 261.579 1943.62 266.652 1943.62 273.174V338.609H1901.01V216.652H1943.62V232.739C1947.39 227.522 1952.24 223.391 1958.18 220.348C1964.27 217.16 1971.23 215.565 1979.05 215.565C1988.04 215.565 1996.01 217.522 2002.97 221.435C2010.07 225.348 2015.65 230.855 2019.71 237.957C2024.05 231.29 2029.78 225.928 2036.88 221.87C2043.98 217.667 2051.8 215.565 2060.36 215.565ZM2217.18 131.652L2159.14 380.565H2118.05L2176.1 131.652H2217.18ZM2247.13 205.348C2239.6 205.348 2233.51 203.319 2228.87 199.261C2224.38 195.058 2222.13 189.841 2222.13 183.609C2222.13 177.232 2224.38 171.942 2228.87 167.739C2233.51 163.536 2239.6 161.435 2247.13 161.435C2254.52 161.435 2260.47 163.536 2264.96 167.739C2269.6 171.942 2271.91 177.232 2271.91 183.609C2271.91 189.841 2269.6 195.058 2264.96 199.261C2260.47 203.319 2254.52 205.348 2247.13 205.348ZM2268.22 216.652V338.609H2225.61V216.652H2268.22ZM2372.27 215.565C2386.33 215.565 2397.49 220.275 2405.75 229.696C2414.01 238.971 2418.14 251.579 2418.14 267.522V338.609H2375.53V273.174C2375.53 266.217 2373.72 260.783 2370.1 256.87C2366.47 252.812 2361.62 250.783 2355.53 250.783C2349.15 250.783 2344.15 252.812 2340.53 256.87C2336.9 260.783 2335.1 266.217 2335.1 273.174V338.609H2292.49V216.652H2335.1V234.044C2338.86 228.536 2343.93 224.116 2350.32 220.783C2356.68 217.304 2364.01 215.565 2372.27 215.565ZM2525.65 131.652L2467.61 380.565H2426.52L2484.57 131.652H2525.65ZM2576.68 177.739V338.609H2534.08V177.739H2576.68ZM2725.74 216.652V338.609H2682.91V321.217C2679.28 326.725 2674.28 331.217 2667.91 334.696C2661.53 338.029 2654.22 339.696 2645.96 339.696C2631.75 339.696 2620.52 335.058 2612.26 325.783C2604.14 316.362 2600.09 303.609 2600.09 287.522V216.652H2642.48V282.087C2642.48 289.044 2644.28 294.551 2647.91 298.609C2651.67 302.522 2656.61 304.478 2662.7 304.478C2668.92 304.478 2673.85 302.522 2677.48 298.609C2681.1 294.551 2682.91 289.044 2682.91 282.087V216.652H2725.74ZM2743.02 277.522C2743.02 264.913 2745.63 253.899 2750.85 244.478C2756.07 235.058 2763.32 227.812 2772.59 222.739C2782.01 217.667 2792.74 215.13 2804.76 215.13C2820.27 215.13 2833.32 219.406 2843.89 227.957C2854.48 236.362 2861.28 248.174 2864.33 263.391H2819.11C2816.5 255.421 2811.43 251.435 2803.89 251.435C2798.53 251.435 2794.26 253.682 2791.07 258.174C2788.02 262.522 2786.5 268.971 2786.5 277.522C2786.5 286.073 2788.02 292.595 2791.07 297.087C2794.26 301.579 2798.53 303.826 2803.89 303.826C2811.58 303.826 2816.65 299.84 2819.11 291.87H2864.33C2861.28 306.942 2854.48 318.753 2843.89 327.304C2833.32 335.856 2820.27 340.131 2804.76 340.131C2792.74 340.131 2782.01 337.595 2772.59 332.522C2763.32 327.449 2756.07 320.203 2750.85 310.783C2745.63 301.362 2743.02 290.275 2743.02 277.522ZM2903.55 205.348C2896.02 205.348 2889.93 203.319 2885.29 199.261C2880.8 195.058 2878.55 189.841 2878.55 183.609C2878.55 177.232 2880.8 171.942 2885.29 167.739C2889.93 163.536 2896.02 161.435 2903.55 161.435C2910.95 161.435 2916.89 163.536 2921.38 167.739C2926.02 171.942 2928.34 177.232 2928.34 183.609C2928.34 189.841 2926.02 195.058 2921.38 199.261C2916.89 203.319 2910.95 205.348 2903.55 205.348ZM2924.64 216.652V338.609H2882.03V216.652H2924.64ZM2941.95 277.522C2941.95 264.913 2944.2 253.899 2948.68 244.478C2953.33 235.058 2959.55 227.812 2967.38 222.739C2975.36 217.667 2984.2 215.13 2993.9 215.13C3002.32 215.13 3009.55 216.797 3015.64 220.13C3021.73 223.464 3026.45 227.957 3029.77 233.609V216.652H3072.38V338.609H3029.77V321.652C3026.45 327.304 3021.66 331.797 3015.42 335.131C3009.34 338.464 3002.16 340.131 2993.9 340.131C2984.2 340.131 2975.36 337.595 2967.38 332.522C2959.55 327.449 2953.33 320.203 2948.68 310.783C2944.2 301.217 2941.95 290.131 2941.95 277.522ZM3029.77 277.522C3029.77 269.696 3027.6 263.536 3023.25 259.044C3019.05 254.551 3013.84 252.304 3007.6 252.304C3001.23 252.304 2995.93 254.551 2991.73 259.044C2987.53 263.391 2985.42 269.551 2985.42 277.522C2985.42 285.348 2987.53 291.579 2991.73 296.217C2995.93 300.71 3001.23 302.957 3007.6 302.957C3013.84 302.957 3019.05 300.71 3023.25 296.217C3027.6 291.725 3029.77 285.492 3029.77 277.522ZM3176.45 215.565C3190.5 215.565 3201.66 220.275 3209.92 229.696C3218.18 238.971 3222.32 251.579 3222.32 267.522V338.609H3179.71V273.174C3179.71 266.217 3177.89 260.783 3174.27 256.87C3170.65 252.812 3165.79 250.783 3159.71 250.783C3153.33 250.783 3148.33 252.812 3144.71 256.87C3141.09 260.783 3139.27 266.217 3139.27 273.174V338.609H3096.66V216.652H3139.27V234.044C3143.04 228.536 3148.11 224.116 3154.49 220.783C3160.87 217.304 3168.18 215.565 3176.45 215.565ZM3302.43 340.131C3290.26 340.131 3279.32 337.595 3269.61 332.522C3260.04 327.449 3252.51 320.203 3247 310.783C3241.49 301.362 3238.74 290.275 3238.74 277.522C3238.74 264.913 3241.49 253.899 3247 244.478C3252.65 235.058 3260.26 227.812 3269.83 222.739C3279.53 217.667 3290.48 215.13 3302.65 215.13C3314.83 215.13 3325.7 217.667 3335.26 222.739C3344.97 227.812 3352.58 235.058 3358.09 244.478C3363.74 253.899 3366.57 264.913 3366.57 277.522C3366.57 290.131 3363.74 301.217 3358.09 310.783C3352.58 320.203 3344.97 327.449 3335.26 332.522C3325.55 337.595 3314.61 340.131 3302.43 340.131ZM3302.43 303.174C3308.38 303.174 3313.3 301 3317.22 296.652C3321.27 292.16 3323.3 285.783 3323.3 277.522C3323.3 269.261 3321.27 262.957 3317.22 258.609C3313.3 254.261 3308.45 252.087 3302.65 252.087C3296.86 252.087 3292 254.261 3288.09 258.609C3284.17 262.957 3282.22 269.261 3282.22 277.522C3282.22 285.927 3284.1 292.304 3287.87 296.652C3291.64 301 3296.49 303.174 3302.43 303.174ZM3564.12 216.652L3533.03 338.609H3485.21L3468.25 264.696L3450.64 338.609H3403.03L3372.16 216.652H3414.55L3428.25 297.522L3446.29 216.652H3491.95L3510.64 297.739L3524.12 216.652H3564.12ZM3692.76 276.217C3692.76 279.551 3692.54 282.884 3692.11 286.217H3611.46C3611.89 292.884 3613.71 297.884 3616.89 301.217C3620.23 304.406 3624.42 306 3629.5 306C3636.6 306 3641.67 302.812 3644.72 296.435H3690.15C3688.27 304.84 3684.58 312.377 3679.07 319.044C3673.71 325.565 3666.89 330.71 3658.63 334.478C3650.37 338.247 3641.24 340.131 3631.24 340.131C3619.21 340.131 3608.49 337.595 3599.07 332.522C3589.79 327.449 3582.47 320.203 3577.11 310.783C3571.89 301.362 3569.28 290.275 3569.28 277.522C3569.28 264.769 3571.89 253.753 3577.11 244.478C3582.33 235.058 3589.58 227.812 3598.85 222.739C3608.27 217.667 3619.07 215.13 3631.24 215.13C3643.27 215.13 3653.92 217.594 3663.2 222.522C3672.47 227.449 3679.72 234.551 3684.93 243.826C3690.15 252.957 3692.76 263.753 3692.76 276.217ZM3649.28 265.565C3649.28 260.348 3647.54 256.29 3644.07 253.391C3640.59 250.348 3636.24 248.826 3631.02 248.826C3625.8 248.826 3621.53 250.275 3618.2 253.174C3614.86 255.927 3612.68 260.058 3611.67 265.565H3649.28ZM3762.15 340.131C3751.14 340.131 3741.28 338.319 3732.59 334.696C3724.04 330.927 3717.23 325.856 3712.15 319.478C3707.23 312.957 3704.48 305.638 3703.89 297.522H3745.2C3745.78 301.435 3747.59 304.478 3750.63 306.652C3753.67 308.826 3757.45 309.913 3761.93 309.913C3765.41 309.913 3768.17 309.188 3770.2 307.739C3772.23 306.29 3773.24 304.406 3773.24 302.087C3773.24 299.044 3771.58 296.797 3768.24 295.348C3764.91 293.899 3759.4 292.304 3751.72 290.565C3743.02 288.826 3735.78 286.87 3729.98 284.696C3724.18 282.522 3719.11 278.971 3714.76 274.044C3710.57 269.116 3708.46 262.449 3708.46 254.044C3708.46 246.797 3710.41 240.275 3714.33 234.478C3718.24 228.536 3723.97 223.826 3731.5 220.348C3739.18 216.87 3748.39 215.13 3759.11 215.13C3775.05 215.13 3787.59 219.044 3796.72 226.87C3805.85 234.696 3811.14 244.986 3812.59 257.739H3774.11C3773.39 253.826 3771.65 250.855 3768.89 248.826C3766.28 246.652 3762.74 245.565 3758.24 245.565C3754.76 245.565 3752.09 246.217 3750.2 247.522C3748.46 248.826 3747.59 250.638 3747.59 252.957C3747.59 255.855 3749.26 258.101 3752.59 259.696C3755.92 261.145 3761.28 262.666 3768.67 264.261C3777.52 266.145 3784.84 268.247 3790.63 270.565C3796.58 272.884 3801.72 276.652 3806.07 281.87C3810.57 286.942 3812.8 293.899 3812.8 302.739C3812.8 309.84 3810.71 316.217 3806.5 321.87C3802.45 327.522 3796.58 332.014 3788.89 335.348C3781.36 338.536 3772.45 340.131 3762.15 340.131ZM3876.37 177.739V338.609H3833.76V177.739H3876.37ZM4017.15 276.217C4017.15 279.551 4016.93 282.884 4016.5 286.217H3935.85C3936.28 292.884 3938.1 297.884 3941.28 301.217C3944.62 304.406 3948.82 306 3953.89 306C3960.99 306 3966.07 302.812 3969.11 296.435H4014.54C4012.66 304.84 4008.97 312.377 4003.46 319.044C3998.1 325.565 3991.28 330.71 3983.02 334.478C3974.76 338.247 3965.63 340.131 3955.63 340.131C3943.6 340.131 3932.88 337.595 3923.46 332.522C3914.18 327.449 3906.86 320.203 3901.5 310.783C3896.28 301.362 3893.67 290.275 3893.67 277.522C3893.67 264.769 3896.28 253.753 3901.5 244.478C3906.72 235.058 3913.97 227.812 3923.24 222.739C3932.66 217.667 3943.46 215.13 3955.63 215.13C3967.66 215.13 3978.32 217.594 3987.59 222.522C3996.86 227.449 4004.11 234.551 4009.33 243.826C4014.54 252.957 4017.15 263.753 4017.15 276.217ZM3973.67 265.565C3973.67 260.348 3971.93 256.29 3968.46 253.391C3964.98 250.348 3960.63 248.826 3955.41 248.826C3950.2 248.826 3945.92 250.275 3942.59 253.174C3939.25 255.927 3937.08 260.058 3936.07 265.565H3973.67ZM4114.37 215.565C4128.42 215.565 4139.59 220.275 4147.85 229.696C4156.11 238.971 4160.24 251.579 4160.24 267.522V338.609H4117.63V273.174C4117.63 266.217 4115.82 260.783 4112.2 256.87C4108.58 252.812 4103.72 250.783 4097.63 250.783C4091.25 250.783 4086.25 252.812 4082.63 256.87C4079.01 260.783 4077.2 266.217 4077.2 273.174V338.609H4034.59V216.652H4077.2V234.044C4080.97 228.536 4086.03 224.116 4092.41 220.783C4098.79 217.304 4106.11 215.565 4114.37 215.565ZM4175.36 219.696V179.696H4242.32V338.609H4197.75V219.696H4175.36ZM4259.42 219.696V179.696H4326.38V338.609H4281.82V219.696H4259.42Z" fill="#007BFE"/>
</svg>
