<svg width="3871" height="512" viewBox="0 0 3871 512" fill="none" xmlns="http://www.w3.org/2000/svg">
<path d="M475.074 0H36.9258C16.5312 0 0 16.5312 0 36.9258V475.074C0 495.469 16.5312 512 36.9258 512H475.074C495.469 512 512 495.469 512 475.074V36.9258C512 16.5312 495.469 0 475.074 0ZM372.887 199.602C373 202.121 373.055 204.652 373.055 207.195C373.055 284.84 313.953 374.375 205.871 374.379C172.688 374.379 141.809 364.652 115.805 347.984C120.402 348.527 125.082 348.797 129.82 348.797C157.352 348.797 182.688 339.406 202.801 323.645C177.078 323.168 155.391 306.18 147.906 282.832C151.488 283.52 155.172 283.895 158.949 283.895C164.312 283.895 169.508 283.172 174.445 281.824C147.559 276.441 127.305 252.68 127.305 224.227C127.305 223.961 127.305 223.723 127.312 223.477C135.23 227.879 144.285 230.527 153.926 230.824C138.148 220.297 127.777 202.301 127.777 181.914C127.777 171.148 130.688 161.062 135.734 152.379C164.711 187.934 208.016 211.316 256.852 213.773C255.844 209.469 255.324 204.984 255.324 200.375C255.324 167.938 281.641 141.621 314.09 141.621C330.992 141.621 346.258 148.766 356.98 160.188C370.367 157.547 382.938 152.656 394.293 145.926C389.898 159.641 380.586 171.148 368.453 178.426C380.34 177.004 391.668 173.852 402.195 169.172C394.332 180.957 384.359 191.309 372.887 199.602Z" fill="#FF911C"/>
<path d="M724.87 302.304V338.609H706.391C675.232 338.609 659.652 323.174 659.652 292.304V252.087H644.652V216.652H659.652V187.087H702.478V216.652H724.652V252.087H702.478V292.957C702.478 296.29 703.203 298.682 704.652 300.13C706.246 301.579 708.855 302.304 712.478 302.304H724.87ZM924.63 216.652L893.543 338.609H845.717L828.761 264.696L811.152 338.609H763.543L732.674 216.652H775.065L788.761 297.522L806.804 216.652H852.456L871.152 297.739L884.63 216.652H924.63ZM958.275 205.348C950.738 205.348 944.651 203.319 940.014 199.261C935.521 195.058 933.275 189.841 933.275 183.609C933.275 177.232 935.521 171.942 940.014 167.739C944.651 163.536 950.738 161.435 958.275 161.435C965.666 161.435 971.608 163.536 976.101 167.739C980.738 171.942 983.058 177.232 983.058 183.609C983.058 189.841 980.738 195.058 976.101 199.261C971.608 203.319 965.666 205.348 958.275 205.348ZM979.362 216.652V338.609H936.753V216.652H979.362ZM1075.58 302.304V338.609H1057.1C1025.95 338.609 1010.37 323.174 1010.37 292.304V252.087H995.365V216.652H1010.37V187.087H1053.19V216.652H1075.37V252.087H1053.19V292.957C1053.19 296.29 1053.92 298.682 1055.37 300.13C1056.96 301.579 1059.57 302.304 1063.19 302.304H1075.58ZM1167.08 302.304V338.609H1148.6C1117.44 338.609 1101.87 323.174 1101.87 292.304V252.087H1086.87V216.652H1101.87V187.087H1144.69V216.652H1166.87V252.087H1144.69V292.957C1144.69 296.29 1145.42 298.682 1146.87 300.13C1148.46 301.579 1151.07 302.304 1154.69 302.304H1167.08ZM1303.15 276.217C1303.15 279.551 1302.93 282.884 1302.5 286.217H1221.84C1222.28 292.884 1224.09 297.884 1227.28 301.217C1230.61 304.405 1234.81 306 1239.89 306C1246.99 306 1252.06 302.812 1255.1 296.435H1300.54C1298.65 304.84 1294.96 312.377 1289.45 319.043C1284.09 325.565 1277.28 330.71 1269.02 334.478C1260.76 338.247 1251.63 340.13 1241.63 340.13C1229.6 340.13 1218.87 337.595 1209.45 332.522C1200.18 327.449 1192.86 320.203 1187.5 310.783C1182.28 301.362 1179.67 290.275 1179.67 277.522C1179.67 264.768 1182.28 253.753 1187.5 244.478C1192.71 235.058 1199.96 227.812 1209.23 222.739C1218.65 217.667 1229.45 215.13 1241.63 215.13C1253.65 215.13 1264.31 217.594 1273.58 222.522C1282.86 227.449 1290.1 234.551 1295.32 243.826C1300.54 252.957 1303.15 263.753 1303.15 276.217ZM1259.67 265.565C1259.67 260.348 1257.93 256.29 1254.45 253.391C1250.97 250.348 1246.63 248.826 1241.41 248.826C1236.19 248.826 1231.92 250.275 1228.58 253.174C1225.25 255.927 1223.07 260.058 1222.06 265.565H1259.67ZM1363.19 238.174C1367.98 231.217 1373.77 225.71 1380.58 221.652C1387.4 217.594 1394.72 215.565 1402.54 215.565V261H1390.58C1381.31 261 1374.42 262.812 1369.93 266.435C1365.44 270.058 1363.19 276.362 1363.19 285.348V338.609H1320.58V216.652H1363.19V238.174ZM1438.47 340.348C1430.93 340.348 1424.85 338.318 1420.21 334.261C1415.72 330.058 1413.47 324.768 1413.47 318.391C1413.47 312.014 1415.72 306.725 1420.21 302.522C1424.85 298.318 1430.93 296.217 1438.47 296.217C1445.86 296.217 1451.8 298.318 1456.29 302.522C1460.93 306.725 1463.25 312.014 1463.25 318.391C1463.25 324.623 1460.93 329.84 1456.29 334.043C1451.8 338.247 1445.86 340.348 1438.47 340.348ZM1476.25 277.522C1476.25 264.913 1478.86 253.899 1484.07 244.478C1489.29 235.058 1496.54 227.812 1505.81 222.739C1515.23 217.667 1525.96 215.13 1537.99 215.13C1553.49 215.13 1566.54 219.406 1577.12 227.957C1587.7 236.362 1594.51 248.174 1597.55 263.391H1552.33C1549.73 255.421 1544.65 251.435 1537.12 251.435C1531.75 251.435 1527.48 253.682 1524.29 258.174C1521.25 262.522 1519.73 268.971 1519.73 277.522C1519.73 286.073 1521.25 292.595 1524.29 297.087C1527.48 301.579 1531.75 303.826 1537.12 303.826C1544.8 303.826 1549.87 299.84 1552.33 291.87H1597.55C1594.51 306.942 1587.7 318.753 1577.12 327.304C1566.54 335.855 1553.49 340.13 1537.99 340.13C1525.96 340.13 1515.23 337.595 1505.81 332.522C1496.54 327.449 1489.29 320.203 1484.07 310.783C1478.86 301.362 1476.25 290.275 1476.25 277.522ZM1671.99 340.13C1659.82 340.13 1648.88 337.595 1639.17 332.522C1629.6 327.449 1622.06 320.203 1616.56 310.783C1611.05 301.362 1608.3 290.275 1608.3 277.522C1608.3 264.913 1611.05 253.899 1616.56 244.478C1622.21 235.058 1629.82 227.812 1639.38 222.739C1649.09 217.667 1660.03 215.13 1672.21 215.13C1684.38 215.13 1695.25 217.667 1704.82 222.739C1714.53 227.812 1722.14 235.058 1727.64 244.478C1733.29 253.899 1736.12 264.913 1736.12 277.522C1736.12 290.13 1733.29 301.217 1727.64 310.783C1722.14 320.203 1714.53 327.449 1704.82 332.522C1695.11 337.595 1684.17 340.13 1671.99 340.13ZM1671.99 303.174C1677.93 303.174 1682.86 301 1686.77 296.652C1690.83 292.16 1692.86 285.783 1692.86 277.522C1692.86 269.261 1690.83 262.957 1686.77 258.609C1682.86 254.261 1678.01 252.087 1672.21 252.087C1666.41 252.087 1661.56 254.261 1657.64 258.609C1653.73 262.957 1651.77 269.261 1651.77 277.522C1651.77 285.927 1653.66 292.304 1657.43 296.652C1661.19 301 1666.05 303.174 1671.99 303.174ZM1912.8 215.565C1928.16 215.565 1940.2 220.203 1948.89 229.478C1957.73 238.754 1962.15 251.435 1962.15 267.522V338.609H1919.54V273.174C1919.54 266.652 1917.73 261.579 1914.11 257.957C1910.49 254.334 1905.55 252.522 1899.33 252.522C1893.1 252.522 1888.16 254.334 1884.54 257.957C1880.92 261.579 1879.11 266.652 1879.11 273.174V338.609H1836.5V273.174C1836.5 266.652 1834.68 261.579 1831.07 257.957C1827.59 254.334 1822.73 252.522 1816.5 252.522C1810.12 252.522 1805.12 254.334 1801.5 257.957C1797.88 261.579 1796.07 266.652 1796.07 273.174V338.609H1753.46V216.652H1796.07V232.739C1799.84 227.522 1804.68 223.391 1810.63 220.348C1816.72 217.159 1823.67 215.565 1831.5 215.565C1840.49 215.565 1848.46 217.522 1855.41 221.435C1862.51 225.348 1868.1 230.855 1872.15 237.957C1876.5 231.29 1882.23 225.927 1889.33 221.87C1896.42 217.667 1904.25 215.565 1912.8 215.565ZM2069.63 131.652L2011.59 380.565H1970.5L2028.54 131.652H2069.63ZM2120.66 177.739V338.609H2078.05V177.739H2120.66ZM2269.72 216.652V338.609H2226.89V321.217C2223.26 326.725 2218.26 331.217 2211.89 334.696C2205.51 338.029 2198.2 339.696 2189.93 339.696C2175.73 339.696 2164.5 335.058 2156.24 325.783C2148.12 316.362 2144.07 303.609 2144.07 287.522V216.652H2186.46V282.087C2186.46 289.043 2188.26 294.551 2191.89 298.609C2195.65 302.522 2200.59 304.478 2206.67 304.478C2212.9 304.478 2217.83 302.522 2221.46 298.609C2225.08 294.551 2226.89 289.043 2226.89 282.087V216.652H2269.72ZM2287.01 277.522C2287.01 264.913 2289.62 253.899 2294.84 244.478C2300.05 235.058 2307.29 227.812 2316.58 222.739C2325.99 217.667 2336.72 215.13 2348.75 215.13C2364.25 215.13 2377.29 219.406 2387.88 227.957C2398.46 236.362 2405.27 248.174 2408.32 263.391H2363.1C2360.49 255.421 2355.41 251.435 2347.88 251.435C2342.51 251.435 2338.24 253.682 2335.05 258.174C2332.01 262.522 2330.49 268.971 2330.49 277.522C2330.49 286.073 2332.01 292.595 2335.05 297.087C2338.24 301.579 2342.51 303.826 2347.88 303.826C2355.55 303.826 2360.63 299.84 2363.1 291.87H2408.32C2405.27 306.942 2398.46 318.753 2387.88 327.304C2377.29 335.855 2364.25 340.13 2348.75 340.13C2336.72 340.13 2325.99 337.595 2316.58 332.522C2307.29 327.449 2300.05 320.203 2294.84 310.783C2289.62 301.362 2287.01 290.275 2287.01 277.522ZM2447.53 205.348C2440 205.348 2433.91 203.319 2429.27 199.261C2424.78 195.058 2422.53 189.841 2422.53 183.609C2422.53 177.232 2424.78 171.942 2429.27 167.739C2433.91 163.536 2440 161.435 2447.53 161.435C2454.92 161.435 2460.87 163.536 2465.36 167.739C2470 171.942 2472.32 177.232 2472.32 183.609C2472.32 189.841 2470 195.058 2465.36 199.261C2460.87 203.319 2454.92 205.348 2447.53 205.348ZM2468.62 216.652V338.609H2426.01V216.652H2468.62ZM2485.92 277.522C2485.92 264.913 2488.17 253.899 2492.66 244.478C2497.3 235.058 2503.53 227.812 2511.36 222.739C2519.34 217.667 2528.17 215.13 2537.88 215.13C2546.29 215.13 2553.53 216.797 2559.62 220.13C2565.71 223.464 2570.42 227.957 2573.75 233.609V216.652H2616.36V338.609H2573.75V321.652C2570.42 327.304 2565.64 331.797 2559.4 335.13C2553.32 338.464 2546.14 340.13 2537.88 340.13C2528.17 340.13 2519.34 337.595 2511.36 332.522C2503.53 327.449 2497.3 320.203 2492.66 310.783C2488.17 301.217 2485.92 290.13 2485.92 277.522ZM2573.75 277.522C2573.75 269.696 2571.58 263.536 2567.23 259.043C2563.03 254.551 2557.82 252.304 2551.58 252.304C2545.21 252.304 2539.91 254.551 2535.71 259.043C2531.51 263.391 2529.4 269.551 2529.4 277.522C2529.4 285.348 2531.51 291.579 2535.71 296.217C2539.91 300.71 2545.21 302.957 2551.58 302.957C2557.82 302.957 2563.03 300.71 2567.23 296.217C2571.58 291.725 2573.75 285.492 2573.75 277.522ZM2720.42 215.565C2734.48 215.565 2745.64 220.275 2753.9 229.696C2762.16 238.971 2766.29 251.579 2766.29 267.522V338.609H2723.68V273.174C2723.68 266.217 2721.87 260.783 2718.25 256.87C2714.63 252.812 2709.77 250.783 2703.68 250.783C2697.3 250.783 2692.3 252.812 2688.68 256.87C2685.07 260.783 2683.25 266.217 2683.25 273.174V338.609H2640.64V216.652H2683.25V234.043C2687.02 228.536 2692.09 224.116 2698.47 220.783C2704.85 217.304 2712.16 215.565 2720.42 215.565ZM2846.41 340.13C2834.24 340.13 2823.29 337.595 2813.59 332.522C2804.02 327.449 2796.49 320.203 2790.98 310.783C2785.47 301.362 2782.72 290.275 2782.72 277.522C2782.72 264.913 2785.47 253.899 2790.98 244.478C2796.63 235.058 2804.24 227.812 2813.8 222.739C2823.51 217.667 2834.46 215.13 2846.63 215.13C2858.8 215.13 2869.67 217.667 2879.24 222.739C2888.95 227.812 2896.55 235.058 2902.07 244.478C2907.72 253.899 2910.54 264.913 2910.54 277.522C2910.54 290.13 2907.72 301.217 2902.07 310.783C2896.55 320.203 2888.95 327.449 2879.24 332.522C2869.53 337.595 2858.59 340.13 2846.41 340.13ZM2846.41 303.174C2852.36 303.174 2857.28 301 2861.2 296.652C2865.25 292.16 2867.28 285.783 2867.28 277.522C2867.28 269.261 2865.25 262.957 2861.2 258.609C2857.28 254.261 2852.42 252.087 2846.63 252.087C2840.84 252.087 2835.98 254.261 2832.07 258.609C2828.15 262.957 2826.2 269.261 2826.2 277.522C2826.2 285.927 2828.08 292.304 2831.85 296.652C2835.62 301 2840.47 303.174 2846.41 303.174ZM3108.1 216.652L3077.01 338.609H3029.18L3012.23 264.696L2994.62 338.609H2947.01L2916.14 216.652H2958.53L2972.23 297.522L2990.27 216.652H3035.92L3054.62 297.739L3068.1 216.652H3108.1ZM3236.74 276.217C3236.74 279.551 3236.52 282.884 3236.09 286.217H3155.43C3155.87 292.884 3157.68 297.884 3160.87 301.217C3164.21 304.405 3168.41 306 3173.48 306C3180.59 306 3185.65 302.812 3188.7 296.435H3234.13C3232.25 304.84 3228.55 312.377 3223.04 319.043C3217.68 325.565 3210.87 330.71 3202.61 334.478C3194.35 338.247 3185.22 340.13 3175.22 340.13C3163.2 340.13 3152.47 337.595 3143.04 332.522C3133.77 327.449 3126.46 320.203 3121.09 310.783C3115.87 301.362 3113.26 290.275 3113.26 277.522C3113.26 264.768 3115.87 253.753 3121.09 244.478C3126.3 235.058 3133.55 227.812 3142.83 222.739C3152.25 217.667 3163.04 215.13 3175.22 215.13C3187.25 215.13 3197.9 217.594 3207.17 222.522C3216.46 227.449 3223.7 234.551 3228.91 243.826C3234.13 252.957 3236.74 263.753 3236.74 276.217ZM3193.26 265.565C3193.26 260.348 3191.52 256.29 3188.04 253.391C3184.57 250.348 3180.22 248.826 3175 248.826C3169.78 248.826 3165.51 250.275 3162.17 253.174C3158.85 255.927 3156.67 260.058 3155.65 265.565H3193.26ZM3306.13 340.13C3295.12 340.13 3285.26 338.318 3276.57 334.696C3268.02 330.927 3261.21 325.855 3256.13 319.478C3251.21 312.957 3248.46 305.638 3247.87 297.522H3289.17C3289.76 301.435 3291.57 304.478 3294.61 306.652C3297.65 308.826 3301.42 309.913 3305.91 309.913C3309.39 309.913 3312.15 309.188 3314.17 307.739C3316.21 306.29 3317.22 304.405 3317.22 302.087C3317.22 299.043 3315.55 296.797 3312.22 295.348C3308.89 293.899 3303.38 292.304 3295.7 290.565C3287 288.826 3279.76 286.87 3273.96 284.696C3268.16 282.522 3263.09 278.971 3258.74 274.043C3254.54 269.116 3252.43 262.449 3252.43 254.043C3252.43 246.797 3254.39 240.275 3258.3 234.478C3262.22 228.536 3267.95 223.826 3275.48 220.348C3283.16 216.87 3292.37 215.13 3303.09 215.13C3319.03 215.13 3331.57 219.043 3340.7 226.87C3349.83 234.696 3355.12 244.986 3356.57 257.739H3318.09C3317.37 253.826 3315.63 250.855 3312.87 248.826C3310.26 246.652 3306.72 245.565 3302.22 245.565C3298.74 245.565 3296.07 246.217 3294.17 247.522C3292.43 248.826 3291.57 250.638 3291.57 252.957C3291.57 255.855 3293.24 258.101 3296.57 259.696C3299.9 261.145 3305.26 262.666 3312.65 264.261C3321.5 266.145 3328.82 268.247 3334.61 270.565C3340.55 272.884 3345.7 276.652 3350.04 281.87C3354.54 286.942 3356.78 293.899 3356.78 302.739C3356.78 309.84 3354.68 316.217 3350.48 321.87C3346.42 327.522 3340.55 332.014 3332.87 335.348C3325.34 338.536 3316.42 340.13 3306.13 340.13ZM3420.35 177.739V338.609H3377.74V177.739H3420.35ZM3561.13 276.217C3561.13 279.551 3560.91 282.884 3560.48 286.217H3479.83C3480.26 292.884 3482.08 297.884 3485.26 301.217C3488.6 304.405 3492.79 306 3497.87 306C3504.97 306 3510.04 302.812 3513.09 296.435H3558.52C3556.64 304.84 3552.95 312.377 3547.43 319.043C3542.08 325.565 3535.26 330.71 3527 334.478C3518.74 338.247 3509.61 340.13 3499.61 340.13C3487.58 340.13 3476.86 337.595 3467.43 332.522C3458.16 327.449 3450.84 320.203 3445.48 310.783C3440.26 301.362 3437.65 290.275 3437.65 277.522C3437.65 264.768 3440.26 253.753 3445.48 244.478C3450.7 235.058 3457.95 227.812 3467.22 222.739C3476.64 217.667 3487.43 215.13 3499.61 215.13C3511.64 215.13 3522.29 217.594 3531.57 222.522C3540.84 227.449 3548.09 234.551 3553.3 243.826C3558.52 252.957 3561.13 263.753 3561.13 276.217ZM3517.65 265.565C3517.65 260.348 3515.91 256.29 3512.43 253.391C3508.96 250.348 3504.61 248.826 3499.39 248.826C3494.17 248.826 3489.9 250.275 3486.57 253.174C3483.23 255.927 3481.05 260.058 3480.04 265.565H3517.65ZM3658.35 215.565C3672.4 215.565 3683.57 220.275 3691.83 229.696C3700.09 238.971 3704.22 251.579 3704.22 267.522V338.609H3661.61V273.174C3661.61 266.217 3659.79 260.783 3656.17 256.87C3652.55 252.812 3647.7 250.783 3641.61 250.783C3635.23 250.783 3630.23 252.812 3626.61 256.87C3622.99 260.783 3621.17 266.217 3621.17 273.174V338.609H3578.57V216.652H3621.17V234.043C3624.95 228.536 3630.01 224.116 3636.39 220.783C3642.77 217.304 3650.09 215.565 3658.35 215.565ZM3719.34 219.696V179.696H3786.29V338.609H3741.73V219.696H3719.34ZM3803.4 219.696V179.696H3870.36V338.609H3825.79V219.696H3803.4Z" fill="#007BFE"/>
</svg>
